<svg width="31" height="36" viewBox="0 0 31 36" fill="none" xmlns="http://www.w3.org/2000/svg">
<path d="M22.7676 13.75C22.7676 9.61 19.4076 6.25 15.2676 6.25C11.1276 6.25 7.76758 9.61 7.76758 13.75C7.76758 17.89 11.1276 21.25 15.2676 21.25C19.4076 21.25 22.7676 17.89 22.7676 13.75Z" stroke="#029AE4" stroke-width="2" stroke-miterlimit="10"/>
<path d="M25.9249 13.7498C25.9249 12.0998 28.5274 9.93982 27.9274 8.50732C27.3124 7.01482 23.9224 7.33732 22.8049 6.21232C21.6799 5.09482 22.0024 1.70482 20.5099 1.08982C19.0774 0.489818 16.9174 3.09232 15.2674 3.09232C13.6174 3.09232 11.4574 0.489818 10.0249 1.08982C8.5324 1.70482 8.8549 5.09482 7.7299 6.21232C6.6124 7.33732 3.2224 7.01407 2.6074 8.50732C2.0074 9.93982 4.6099 12.0998 4.6099 13.7498C4.6099 15.3998 2.0074 17.5598 2.6074 18.9923C3.2224 20.4848 6.6124 20.1623 7.7299 21.2873C8.8549 22.4048 8.5324 25.7948 10.0249 26.4098C11.4574 27.0098 13.6174 24.4073 15.2674 24.4073C16.9174 24.4073 19.0774 27.0098 20.5099 26.4098C22.0024 25.7948 21.6799 22.4048 22.8049 21.2873C23.9224 20.1623 27.3124 20.4856 27.9274 18.9923C28.5274 17.5598 25.9249 15.3998 25.9249 13.7498Z" stroke="#029AE4" stroke-width="2" stroke-miterlimit="10"/>
<path d="M17.0684 27.3991L22.0184 33.9991L24.2684 28.7491H28.7684L24.6509 22.8691" stroke="#029AE4" stroke-width="2" stroke-miterlimit="10"/>
<path d="M13.5126 27.3401L8.51758 34.0001L6.26758 28.7501H1.76758L5.39758 22.7051" stroke="#029AE4" stroke-width="2" stroke-miterlimit="10"/>
</svg>
