<svg width="31" height="31" viewBox="0 0 31 31" fill="none" xmlns="http://www.w3.org/2000/svg">
<path d="M4.54247 3.875H26.4575C27.405 3.87603 28.3134 4.25287 28.9834 4.92285C29.6534 5.59283 30.0302 6.50122 30.0312 7.44872V23.5513C30.0302 24.4988 29.6534 25.4072 28.9834 26.0771C28.3134 26.7471 27.405 27.124 26.4575 27.125H4.54247C3.59497 27.124 2.68658 26.7471 2.0166 26.0771C1.34662 25.4072 0.969776 24.4988 0.96875 23.5513V7.44872C0.969776 6.50122 1.34662 5.59283 2.0166 4.92285C2.68658 4.25287 3.59497 3.87603 4.54247 3.875ZM26.4575 5.8125H4.54247C4.10867 5.81301 3.69279 5.98556 3.38605 6.2923C3.07931 6.59904 2.90676 7.01492 2.90625 7.44872V8.18981L15.5 16.2857L28.0938 8.18981V7.44872C28.0932 7.01492 27.9207 6.59904 27.6139 6.2923C27.3072 5.98556 26.8913 5.81301 26.4575 5.8125ZM4.54247 25.1875H26.4575C26.8913 25.187 27.3072 25.0144 27.6139 24.7077C27.9207 24.401 28.0932 23.9851 28.0938 23.5513V10.4935L16.0241 18.2522C15.8678 18.3528 15.6859 18.4062 15.5 18.4062C15.3141 18.4062 15.1322 18.3528 14.9759 18.2522L2.90625 10.4935V23.5513C2.90676 23.9851 3.07931 24.401 3.38605 24.7077C3.69279 25.0144 4.10867 25.187 4.54247 25.1875Z" fill="black"/>
</svg>
