<svg width="34" height="35" viewBox="0 0 34 35" fill="none" xmlns="http://www.w3.org/2000/svg">
<path d="M10.8369 9.43555C11.0571 9.2154 11.4166 9.21577 11.6367 9.43555L24.4805 22.2793L24.5059 22.2529L24.6387 22.4551C24.7815 22.6746 24.7554 22.9721 24.5645 23.1631L22.9766 24.751C22.8667 24.8606 22.7231 24.916 22.5771 24.916C22.431 24.916 22.2867 24.8609 22.1768 24.751L10.0381 12.6113L9.70605 12.2803L9.44238 12.0166L9.25 11.8232C9.0298 11.6031 9.0298 11.2436 9.25 11.0234L10.8369 9.43555ZM29.4336 1.28223C30.323 0.281024 31.8714 0.234811 32.8184 1.18164C33.7654 2.12868 33.7201 3.67729 32.7188 4.56738L22.8125 13.3691L22.5352 13.6152L20.3848 11.4639L20.6309 11.1875L29.4336 1.28223ZM31.1719 0.96875C30.1448 0.96875 29.3115 1.80205 29.3115 2.8291C29.3118 3.85651 30.1448 4.68945 31.1719 4.68945C32.1988 4.68927 33.031 3.85639 33.0312 2.8291C33.0312 1.80216 32.1988 0.968932 31.1719 0.96875Z" fill="#2CBCDE" stroke="black"/>
</svg>
