<svg width="40" height="40" viewBox="0 0 40 40" fill="none" xmlns="http://www.w3.org/2000/svg">
<path d="M14.512 23.8882C13.7284 22.7873 13.2655 21.4428 13.2655 19.9914C13.2655 16.2786 16.2862 13.258 19.999 13.258C23.7118 13.258 26.7346 16.2786 26.7346 19.9914C26.7346 21.4442 26.2707 22.7899 25.4855 23.8914C25.0142 22.4742 23.6228 21.4487 21.9852 21.4126C22.7576 20.634 23.1623 19.4208 23.1623 18.2513C23.1623 16.5076 21.7427 15.0891 19.9976 15.0891C18.2525 15.0891 16.8354 16.5076 16.8354 18.2513C16.8354 19.4208 17.2398 20.634 18.0116 21.4126C16.3766 21.4491 14.9859 22.473 14.512 23.8882ZM24.4027 24.8195C24.3289 23.609 23.2278 22.6607 21.8961 22.6607H18.1017C16.7706 22.6607 15.6684 23.6095 15.5925 24.8205V25.078C16.7745 26.104 18.3148 26.7271 19.999 26.7271C21.6831 26.7271 23.2209 26.1055 24.4027 25.0816V24.8195ZM18.0855 18.2513C18.0855 19.3918 18.6788 20.9981 19.9977 20.9981C21.4443 20.9981 21.9123 19.1475 21.9123 18.2513C21.9123 17.197 21.0534 16.3391 19.9977 16.3391C18.9419 16.3391 18.0855 17.1969 18.0855 18.2513ZM25.2317 13.9655L27.9255 6.38891C27.9761 6.2468 27.918 6.08898 27.7873 6.01359C27.6566 5.93805 27.491 5.9668 27.3931 6.08156L22.1034 12.2898C23.2748 12.6101 24.3398 13.1905 25.2316 13.9655L25.2317 13.9655ZM11.878 9.78383C13.9599 8.12961 16.5565 7.11133 19.374 6.97961V1.01953C14.9357 1.16422 10.8474 2.84234 7.6607 5.56641L11.878 9.78383ZM10.2268 18.3791C10.2741 18.39 10.3212 18.3952 10.3676 18.3952C10.6523 18.3952 10.9096 18.1995 10.9762 17.9102C11.9488 13.6852 15.6591 10.7342 19.9991 10.7342C20.5613 10.7342 21.1159 10.7845 21.6598 10.883L22.5795 9.80367C21.7416 9.59156 20.8784 9.48414 19.9991 9.48414C17.6081 9.48414 15.2679 10.3094 13.4095 11.8077C11.5792 13.2834 10.2824 15.3512 9.75789 17.6298C9.68047 17.9662 9.89039 18.3018 10.2268 18.3791ZM33.2634 6.41055L29.0644 10.6095C31.0177 12.4964 32.3855 15.0055 32.8545 17.8709L32.9175 18.2556H38.9124L38.8448 17.6952C38.3103 13.2626 36.2654 9.33828 33.2634 6.41055ZM20.624 1.01953V6.97953C21.9281 7.04047 23.1849 7.29156 24.3654 7.70734L26.4414 5.27078C26.7391 4.92156 27.1726 4.72148 27.631 4.72148C27.905 4.72148 28.1753 4.79398 28.4127 4.93117C29.0652 5.30773 29.3559 6.09711 29.1032 6.80766L28.0619 9.73656C28.0819 9.75227 28.1018 9.7682 28.1217 9.78406L32.3391 5.56664C29.1524 2.84234 25.0634 1.16414 20.6239 1.01953H20.624ZM38.9844 22.7521V19.5058H29.2562V19.9914C29.2562 25.097 25.1034 29.2509 19.999 29.2509C14.8946 29.2509 10.7418 25.0971 10.7418 19.9914V19.5058H1.01562V22.7521L4.83773 24.5183L6.07914 27.5129L4.62359 31.4635L8.52664 35.3691L12.4776 33.9134L15.4742 35.1548L17.238 38.9769H22.7599L24.5237 35.1548L27.5204 33.9134L31.4713 35.3691L35.3742 31.4637L33.9209 27.513L35.1623 24.5183L38.9845 22.7521H38.9844ZM7.14555 17.8709C7.61453 15.0054 8.98234 12.4961 10.9354 10.6092L6.73648 6.41023C3.73422 9.33805 1.68867 13.2623 1.15305 17.695L1.08531 18.2556H7.08258L7.14555 17.8709ZM29.6304 18.3952C29.6768 18.3952 29.7238 18.39 29.771 18.3791C30.1074 18.3018 30.3175 17.9663 30.2402 17.6299C29.7665 15.5703 28.6882 13.7189 27.1529 12.2934L26.6909 13.5929C27.837 14.7898 28.6459 16.2755 29.0217 17.9101C29.0883 18.1995 29.3456 18.3952 29.6304 18.3952Z" fill="black"/>
</svg>
