<svg width="43" height="43" viewBox="0 0 43 43" fill="none" xmlns="http://www.w3.org/2000/svg">
<g clip-path="url(#clip0_149_165)">
<path d="M22.2358 27.5049C24.0549 27.5049 25.7019 26.7667 26.8945 25.5766C28.087 24.384 28.8227 22.7363 28.8227 20.918C28.8227 19.0997 28.087 17.452 26.8945 16.2594C25.7019 15.0693 24.0541 14.3311 22.2358 14.3311C20.4176 14.3311 18.7698 15.0693 17.5789 16.2594C16.3863 17.452 15.6481 19.0997 15.6481 20.918C15.6481 22.7363 16.3863 24.384 17.5789 25.5766C18.7698 26.7667 20.4167 27.5049 22.2358 27.5049ZM20.3554 17.5628C20.6863 17.2966 21.0979 17.0984 21.5556 16.9984V16.1913C21.5556 15.8151 21.8604 15.5102 22.2367 15.5102C22.6155 15.5102 22.9203 15.8151 22.9203 16.1913V16.9984C23.3083 17.0841 23.6653 17.2412 23.9676 17.4511C24.4791 17.8055 24.8368 18.3153 24.9435 18.8982C25.0124 19.2669 24.7671 19.6221 24.3984 19.691C24.0272 19.7573 23.672 19.5121 23.6056 19.1434C23.5653 18.9242 23.415 18.7218 23.1941 18.5698C22.9421 18.3959 22.6087 18.2893 22.2367 18.2893C21.8294 18.2893 21.4657 18.4178 21.2079 18.6252C20.9937 18.7965 20.8602 19.025 20.8602 19.2635C20.8602 19.5012 20.9937 19.7279 21.2079 19.9018C21.4649 20.1092 21.8294 20.2352 22.2367 20.2352H22.256C22.9657 20.2444 23.6157 20.4871 24.0961 20.8735C24.6269 21.3018 24.9578 21.9023 24.9578 22.5733C24.9578 23.2444 24.6269 23.8474 24.0961 24.2732C23.7652 24.5394 23.3537 24.7376 22.8985 24.8375V25.6446C22.8985 26.0209 22.5911 26.3257 22.2148 26.3257C21.8386 26.3257 21.5312 26.0209 21.5312 25.6446V24.8375C21.1432 24.7519 20.7863 24.5948 20.4864 24.3849C19.975 24.0304 19.6147 23.5207 19.508 22.9378C19.4417 22.5691 19.6844 22.2139 20.0556 22.145C20.4243 22.0787 20.7796 22.3239 20.8459 22.6926C20.8862 22.9118 21.0391 23.1142 21.2574 23.2662C21.5094 23.44 21.8428 23.5467 22.2148 23.5467C22.6222 23.5467 22.9858 23.4182 23.2437 23.2108C23.4578 23.0394 23.5913 22.811 23.5913 22.5725C23.5913 22.3348 23.4578 22.108 23.2437 21.9342C22.9867 21.7268 22.6222 21.6008 22.2148 21.6008H22.1955C21.4884 21.5915 20.8358 21.3488 20.3554 20.9625C19.8246 20.5342 19.4938 19.9337 19.4938 19.2627C19.4938 18.5916 19.8246 17.9886 20.3554 17.5628ZM36.6291 20.9146C36.6291 21.5101 36.3486 22.019 35.8455 22.3356L34.6857 23.0663C33.9433 23.5349 33.6879 24.4898 34.0953 25.2684L34.7361 26.4895C35.0124 27.0153 34.9981 27.5989 34.7025 28.1129C34.4052 28.6244 33.9046 28.9267 33.3125 28.9486L31.9436 29.0032C31.0676 29.0393 30.3672 29.7363 30.3319 30.6148L30.2748 31.993C30.2513 32.5859 29.949 33.0831 29.4341 33.3813C28.9202 33.6769 28.3365 33.6887 27.8132 33.4123L26.5988 32.7741C25.8228 32.3642 24.8679 32.6195 24.3968 33.362L23.6585 34.5285C23.3419 35.0282 22.8304 35.3096 22.2375 35.3096C22.0301 35.3096 21.8352 35.276 21.6547 35.2096C21.6144 35.0047 21.5522 34.8073 21.4716 34.6217C21.7932 34.1766 21.9856 33.6315 21.9856 33.0411C21.9856 31.5529 20.7712 30.3394 19.2838 30.3394H16.5627C16.7819 29.0468 16.7433 27.5805 16.4266 26.3467C16.4863 26.4114 16.5484 26.4752 16.6122 26.5399C18.0526 27.9802 20.0405 28.8705 22.235 28.8705C24.432 28.8705 26.4199 27.9802 27.8578 26.5399C29.2981 25.1021 30.1883 23.1117 30.1883 20.9171C30.1883 18.7218 29.2981 16.7322 27.8578 15.2944C26.4199 13.8541 24.432 12.9638 22.235 12.9638C20.0396 12.9638 18.0526 13.8541 16.6122 15.2944C15.1744 16.7322 14.2842 18.7226 14.2842 20.9171C14.2842 21.9409 14.4774 22.9193 14.8293 23.8171C13.1319 22.748 10.8845 24.0531 11.1726 26.4668C11.1894 27.4906 10.8484 28.1574 10.3487 28.7168C10.1152 28.574 9.91785 28.3716 9.77256 28.1171C9.47525 27.6006 9.46266 27.0195 9.73896 26.4937L10.3772 25.2818C10.7871 24.5058 10.5318 23.5509 9.78936 23.0797L8.62281 22.3415C8.12311 22.0224 7.84176 21.5134 7.84176 20.9205C7.84176 20.3251 8.12479 19.8161 8.62701 19.4995L9.78432 18.7688C10.5267 18.3002 10.7846 17.3453 10.3772 16.5668L9.73645 15.3456C9.46014 14.8199 9.47189 14.2362 9.77004 13.7247C10.0673 13.2107 10.5654 12.9084 11.1583 12.8866L12.5272 12.832C13.4057 12.7984 14.1053 12.0988 14.1414 11.2228L14.1985 9.84213C14.2221 9.2492 14.5244 8.75201 15.0392 8.45387C15.5532 8.15908 16.1344 8.14648 16.6601 8.42279L17.872 9.06107C18.6505 9.47092 19.6054 9.21561 20.0741 8.47318L20.8148 7.30664C21.1314 6.80693 21.6412 6.52559 22.2358 6.52559C22.8288 6.52559 23.3377 6.80609 23.6543 7.30916L24.385 8.46814C24.8536 9.21057 25.8085 9.4684 26.5871 9.05855L27.8107 8.41775C28.3348 8.14396 28.9176 8.15572 29.4316 8.45387C29.9456 8.75117 30.2454 9.2492 30.2698 9.84213L30.3219 11.2111C30.358 12.0896 31.055 12.7875 31.9335 12.8253L33.3117 12.8824C33.9046 12.9059 34.4043 13.2065 34.7 13.723C34.9947 14.237 35.0073 14.8182 34.731 15.3439L34.0928 16.5558C33.6829 17.3319 33.9382 18.2868 34.6806 18.7579L35.8472 19.4961C36.3511 19.8128 36.6316 20.3217 36.6291 20.9146ZM19.2838 34.3773H19.0008C19.7339 34.3773 20.3361 34.977 20.3361 35.7127C20.3361 36.4459 19.7339 37.048 19.0008 37.048H18.8244C19.5601 37.048 20.1597 37.6477 20.1597 38.3834C20.1597 39.1166 19.5601 39.7187 18.8244 39.7187H18.3003C19.036 39.7187 19.6357 40.3184 19.6357 41.0541C19.6357 41.7873 19.036 42.3894 18.3003 42.3894H10.4058C10.1841 42.3894 9.99596 42.3533 9.79188 42.2777L8.63709 41.8444C8.59174 41.8276 8.54639 41.8133 8.50355 41.799V32.2399C8.711 32.1324 8.89408 31.9829 9.05365 31.7898C10.3319 30.2352 12.6297 29.5373 12.5365 26.3644C12.3106 24.8006 13.8055 24.2194 14.6361 25.5363C15.5717 27.0144 15.5364 30.1882 14.71 31.7066H19.2829C20.0187 31.7066 20.6183 32.3063 20.6183 33.042C20.6191 33.7752 20.0195 34.3773 19.2838 34.3773ZM7.14049 32.0325V42.1266C7.14049 42.6078 6.74492 43.0025 6.26453 43.0025H3.43594C2.95723 43.0025 2.5625 42.607 2.5625 42.1266V32.0325C2.5625 31.5513 2.95807 31.159 3.43594 31.159H6.26453C6.74492 31.159 7.14049 31.5513 7.14049 32.0325ZM21.5547 2.98145V0.683633C21.5547 0.307383 21.8596 0 22.2358 0C22.6146 0 22.9195 0.307383 22.9195 0.683633V2.98061C22.9195 3.35938 22.6146 3.66424 22.2358 3.66424C21.8596 3.66424 21.5547 3.36021 21.5547 2.98145ZM30.6158 5.04578L31.763 3.05535C31.9512 2.73201 32.3652 2.61947 32.6919 2.80508C33.0178 2.9932 33.1303 3.40725 32.9422 3.73395L31.7949 5.72437C31.6068 6.04855 31.1928 6.16277 30.8661 5.97465C30.5394 5.7882 30.4277 5.37164 30.6158 5.04578ZM40.1002 11.39L38.1097 12.5397C37.7839 12.7278 37.3673 12.6161 37.1792 12.2894C36.9911 11.9653 37.1028 11.5487 37.4269 11.3606L39.4174 10.2108C39.7432 10.0227 40.1598 10.1344 40.3479 10.4586C40.536 10.7853 40.4269 11.2018 40.1002 11.39ZM11.5304 3.73562C11.3422 3.40977 11.4539 2.9932 11.7781 2.80508C12.104 2.61695 12.5205 2.72865 12.7087 3.05283L13.8584 5.04326C14.0465 5.36912 13.9348 5.78568 13.6106 5.97381C13.2848 6.16193 12.8682 6.05275 12.6801 5.72605L11.5304 3.73562ZM7.2925 12.2894C7.10437 12.6153 6.68781 12.7278 6.36195 12.5397L4.37404 11.39C4.04818 11.2018 3.93564 10.7853 4.12377 10.4594C4.31441 10.1352 4.73098 10.0235 5.05432 10.2117L7.04475 11.3614C7.37145 11.5495 7.48062 11.9661 7.2925 12.2894Z" fill="black"/>
</g>
<defs>
<clipPath id="clip0_149_165">
<rect width="43" height="43" fill="white"/>
</clipPath>
</defs>
</svg>
