<svg width="21" height="24" viewBox="0 0 21 24" fill="none" xmlns="http://www.w3.org/2000/svg">
<path d="M4.67801 8.37221V21.6445H0.258371V8.37221H4.67801ZM4.95926 4.27399C4.96819 4.92578 4.74275 5.47042 4.28292 5.90792C3.8231 6.34542 3.21819 6.56417 2.46819 6.56417H2.44141C1.70926 6.56417 1.11998 6.34542 0.673549 5.90792C0.227121 5.47042 0.00390625 4.92578 0.00390625 4.27399C0.00390625 3.61328 0.233817 3.06641 0.693638 2.63337C1.15346 2.20033 1.75391 1.98382 2.49498 1.98382C3.23605 1.98382 3.8298 2.20033 4.27623 2.63337C4.72266 3.06641 4.95034 3.61328 4.95926 4.27399ZM20.5753 14.0374V21.6445H16.1691V14.5463C16.1691 13.6088 15.9883 12.8744 15.6267 12.3432C15.2651 11.8119 14.7003 11.5463 13.9325 11.5463C13.37 11.5463 12.899 11.7003 12.5195 12.0084C12.1401 12.3164 11.8566 12.6981 11.6691 13.1535C11.5709 13.4213 11.5218 13.7829 11.5218 14.2383V21.6445H7.11551C7.13337 18.082 7.1423 15.1936 7.1423 12.9794C7.1423 10.7651 7.13784 9.44364 7.12891 9.01507L7.11551 8.37221H11.5218V10.3008H11.495C11.6735 10.0151 11.8566 9.76507 12.0441 9.55078C12.2316 9.3365 12.4838 9.10435 12.8008 8.85435C13.1177 8.60435 13.5061 8.41016 13.966 8.27176C14.4258 8.13337 14.9369 8.06417 15.4994 8.06417C17.0262 8.06417 18.2539 8.57087 19.1825 9.58426C20.111 10.5977 20.5753 12.082 20.5753 14.0374Z" fill="white"/>
</svg>
