<svg width="42" height="42" viewBox="0 0 42 42" fill="none" xmlns="http://www.w3.org/2000/svg">
<path fill-rule="evenodd" clip-rule="evenodd" d="M23.4873 2.39146L25.9881 4.26341C26.6721 4.77537 27.392 5.03738 28.245 5.08487L31.3639 5.25837C33.2315 5.36222 34.7484 6.63493 35.1749 8.45619L35.8875 11.4977C36.0823 12.3295 36.4654 12.9929 37.0883 13.5776L39.3661 15.7154C40.7299 16.9954 41.0737 18.9454 40.23 20.6147L38.8207 23.4025C38.4354 24.165 38.3023 24.9195 38.4037 25.7677L38.7745 28.8695C38.9965 30.7268 38.0064 32.4415 36.287 33.1779L33.4155 34.4077C32.6301 34.744 32.0432 35.2364 31.5757 35.9514L29.8659 38.5658C28.8421 40.1312 26.9815 40.8083 25.1911 40.2673L22.2009 39.3636C21.3831 39.1164 20.617 39.1164 19.7992 39.3636L16.809 40.2673C15.0186 40.8083 13.1579 40.1312 12.1342 38.5658L10.4244 35.9514C9.95674 35.2364 9.36989 34.744 8.5846 34.4077L5.71285 33.1777C3.99348 32.4413 3.00344 30.7266 3.22542 28.8693L3.5962 25.7676C3.69759 24.9193 3.56453 24.1648 3.17915 23.4024L1.76994 20.6145C0.926164 18.9453 1.26996 16.9953 2.63381 15.7152L4.91157 13.5774C5.53452 12.9928 5.91752 12.3293 6.11234 11.4975L6.82487 8.45603C7.25143 6.63485 8.76827 5.36214 10.6359 5.2582L13.7548 5.08471C14.6078 5.03729 15.3277 4.7752 16.0117 4.26325L18.5125 2.39129C20.0098 1.27058 21.9899 1.27058 23.4873 2.39146ZM19.4046 22.0723L16.6907 19.3584C15.9873 18.655 14.8463 18.655 14.143 19.3584C13.4395 20.0618 13.4395 21.2027 14.143 21.9061L18.1347 25.8978C18.8381 26.6011 19.9791 26.6012 20.6824 25.8978C23.0884 23.4917 25.4671 21.0587 27.862 18.6416C28.5604 17.9368 28.5581 16.7995 27.8542 16.0995C27.1502 15.3994 26.0097 15.4014 25.3106 16.1074L19.4046 22.0723ZM20.9999 7.5851C17.2953 7.5851 13.9412 9.08677 11.5134 11.5146C9.08565 13.9424 7.58398 17.2964 7.58398 21.001C7.58398 24.7056 9.08565 28.0596 11.5134 30.4874C13.9412 32.9152 17.2953 34.4169 20.9999 34.4169C24.7045 34.4169 28.0585 32.9152 30.4863 30.4874C32.9141 28.0596 34.4157 24.7056 34.4157 21.001C34.4157 17.2964 32.9141 13.9424 30.4863 11.5146C28.0585 9.08677 24.7045 7.5851 20.9999 7.5851ZM29.5583 12.4426C27.368 10.2524 24.3421 8.8976 20.9999 8.8976C17.6576 8.8976 14.6317 10.2524 12.4415 12.4426C10.2512 14.6328 8.89648 17.6587 8.89648 21.001C8.89648 24.3433 10.2512 27.3692 12.4415 29.5594C14.6317 31.7496 17.6576 33.1044 20.9999 33.1044C24.3421 33.1044 27.368 31.7496 29.5583 29.5595C31.7485 27.3692 33.1032 24.3434 33.1032 21.0011C33.1033 17.6587 31.7485 14.6328 29.5583 12.4426Z" fill="black"/>
</svg>
