<svg width="25" height="24" viewBox="0 0 25 24" fill="none" xmlns="http://www.w3.org/2000/svg">
<path d="M23.7891 6.76172C23.7891 6.76172 23.7188 6.45312 23.5781 5.83594C23.4375 5.21875 23.1875 4.73047 22.8281 4.37109C22.375 3.88672 21.9219 3.60156 21.4688 3.51562C21.0156 3.42969 20.6641 3.37109 20.4141 3.33984C19.5703 3.27734 18.6641 3.23047 17.6953 3.19922C16.7109 3.16797 15.7969 3.14453 14.9531 3.12891C14.1094 3.11328 13.4062 3.10547 12.8438 3.10547C12.2969 3.10547 12.0234 3.10547 12.0234 3.10547C12.0234 3.10547 11.7422 3.10547 11.1797 3.10547C10.6172 3.10547 9.91406 3.11328 9.07031 3.12891C8.22656 3.14453 7.3125 3.16797 6.32812 3.19922C5.35938 3.23047 4.45312 3.27734 3.60938 3.33984C3.375 3.37109 3.02734 3.42969 2.56641 3.51562C2.10547 3.60156 1.64844 3.88672 1.19531 4.37109C0.835938 4.73047 0.585938 5.21875 0.445312 5.83594C0.304688 6.45312 0.234375 6.76172 0.234375 6.76172C0.234375 6.76172 0.195312 7.16406 0.117188 7.96875C0.0390625 8.77344 0 9.66797 0 10.6523V12.457C0 13.4414 0.0390625 14.3398 0.117188 15.1523C0.195312 15.9648 0.234375 16.3711 0.234375 16.3711C0.234375 16.3711 0.304688 16.6758 0.445312 17.2852C0.585938 17.8945 0.835938 18.3789 1.19531 18.7383C1.64844 19.2227 2.13672 19.5 2.66016 19.5703C3.18359 19.6406 3.57812 19.707 3.84375 19.7695C4.32812 19.8164 5.02344 19.8555 5.92969 19.8867C6.83594 19.918 7.74219 19.9414 8.64844 19.957C9.55469 19.9727 10.3438 19.9883 11.0156 20.0039C11.6875 20.0039 12.0234 20.0039 12.0234 20.0039C12.0234 20.0039 12.2969 20.0039 12.8438 20.0039C13.4062 20.0039 14.1094 19.9922 14.9531 19.9688C15.7969 19.9453 16.7109 19.918 17.6953 19.8867C18.6641 19.8555 19.5703 19.8086 20.4141 19.7461C20.6641 19.7148 21.0156 19.6602 21.4688 19.582C21.9219 19.5039 22.375 19.2227 22.8281 18.7383C23.2031 18.3789 23.457 17.8945 23.5898 17.2852C23.7227 16.6758 23.7891 16.3711 23.7891 16.3711C23.7891 16.3711 23.8281 15.9648 23.9062 15.1523C23.9844 14.3398 24.0234 13.4414 24.0234 12.457V10.6523C24.0234 9.66797 23.9844 8.77344 23.9062 7.96875C23.8281 7.16406 23.7891 6.76172 23.7891 6.76172ZM9.53906 14.6836V7.93359L16.0312 11.3086L9.53906 14.6836Z" fill="white"/>
</svg>
