<svg width="24" height="24" viewBox="0 0 24 24" fill="none" xmlns="http://www.w3.org/2000/svg">
<path d="M12.2109 1.20703C13.5859 1.20703 14.8438 1.44141 15.9844 1.91016C17.125 2.37891 18.1406 3.02734 19.0312 3.85547L16.1016 6.78516C15.5703 6.28516 14.9766 5.90625 14.3203 5.64844C13.6641 5.39062 12.9609 5.26172 12.2109 5.26172C11.5391 5.26172 10.9062 5.36328 10.3125 5.56641C9.70312 5.78516 9.14844 6.08203 8.64844 6.45703C8.14844 6.83203 7.71875 7.27734 7.35938 7.79297C6.98438 8.30859 6.69531 8.86328 6.49219 9.45703L6.42188 9.69141C6.34375 9.97266 6.28125 10.2539 6.23438 10.5352C6.1875 10.8164 6.16406 11.1055 6.16406 11.4023C6.16406 11.7461 6.19531 12.0781 6.25781 12.3984C6.32031 12.7188 6.39844 13.0352 6.49219 13.3477L6.5625 13.5586C6.78125 14.1367 7.07812 14.668 7.45312 15.1523C7.82812 15.6367 8.25781 16.0586 8.74219 16.418C9.22656 16.7773 9.76562 17.0508 10.3594 17.2383C10.9375 17.4414 11.5547 17.543 12.2109 17.543C12.8984 17.543 13.5312 17.457 14.1094 17.2852C14.6875 17.1133 15.2031 16.8789 15.6562 16.582L15.8672 16.4414C16.3516 16.082 16.75 15.6523 17.0625 15.1523C17.375 14.6523 17.5859 14.0977 17.6953 13.4883H12.2109V9.55078H21.8203C21.8828 9.87891 21.9297 10.2188 21.9609 10.5703C21.9922 10.9219 22.0078 11.2773 22.0078 11.6367C22.0078 12.418 21.9375 13.1602 21.7969 13.8633C21.6562 14.582 21.457 15.2578 21.1992 15.8906C20.9414 16.5234 20.625 17.1133 20.25 17.6602C19.875 18.1914 19.4453 18.6836 18.9609 19.1367C18.1172 19.918 17.125 20.5234 15.9844 20.9531C14.8438 21.3828 13.5859 21.5977 12.2109 21.5977C11.2109 21.5977 10.25 21.4648 9.32812 21.1992C8.40625 20.918 7.55469 20.5312 6.77344 20.0391C5.99219 19.5469 5.28906 18.957 4.66406 18.2695C4.02344 17.582 3.5 16.8242 3.09375 15.9961V15.9727C2.75 15.2852 2.48047 14.5586 2.28516 13.793C2.08984 13.0273 1.99219 12.2305 1.99219 11.4023C1.99219 10.5742 2.08594 9.77734 2.27344 9.01172C2.46094 8.24609 2.73438 7.51172 3.09375 6.80859L3.25781 6.50391C3.67969 5.72266 4.20312 5.00391 4.82812 4.34766C5.45312 3.69141 6.15234 3.12891 6.92578 2.66016C7.69922 2.19141 8.53125 1.83203 9.42188 1.58203C10.3125 1.33203 11.2422 1.20703 12.2109 1.20703Z" fill="white"/>
</svg>
