<svg width="24" height="25" viewBox="0 0 24 25" fill="none" xmlns="http://www.w3.org/2000/svg">
<path d="M14.2969 15.3477C14.0938 15.5508 14.0312 15.793 14.1094 16.0742C14.1875 16.3555 14.2266 16.4961 14.2266 16.4961L17.2734 21.582C17.2734 21.582 17.375 21.6953 17.5781 21.9219C17.7812 22.1484 17.9922 22.2617 18.2109 22.2617C18.4297 22.2617 18.6289 22.2031 18.8086 22.0859C18.9883 21.9688 19.0781 21.9102 19.0781 21.9102L21.4922 18.4648C21.4922 18.4648 21.5352 18.3789 21.6211 18.207C21.707 18.0352 21.75 17.8477 21.75 17.6445C21.75 17.3789 21.6133 17.1992 21.3398 17.1055C21.0664 17.0117 20.9297 16.9648 20.9297 16.9648L15.2109 15.1367C15.2109 15.1367 15.1016 15.125 14.8828 15.1016C14.6641 15.0781 14.4688 15.1602 14.2969 15.3477ZM14.0156 12.7695C14.1562 13.0195 14.3711 13.1445 14.6602 13.1445C14.9492 13.1445 15.0938 13.1445 15.0938 13.1445L20.8125 11.457C20.8125 11.457 20.9453 11.3867 21.2109 11.2461C21.4766 11.1055 21.6406 10.9336 21.7031 10.7305C21.75 10.5117 21.7344 10.3008 21.6562 10.0977C21.5781 9.89453 21.5391 9.79297 21.5391 9.79297L18.8438 6.60547C18.8438 6.60547 18.7812 6.53516 18.6562 6.39453C18.5312 6.25391 18.3516 6.16797 18.1172 6.13672C17.8359 6.12109 17.6172 6.21875 17.4609 6.42969C17.3047 6.64062 17.2266 6.74609 17.2266 6.74609L14.0156 11.8086C14.0156 11.8086 13.9766 11.9141 13.8984 12.125C13.8203 12.3359 13.8594 12.5508 14.0156 12.7695ZM11.3203 10.8008C11.6484 10.7227 11.8594 10.5117 11.9531 10.168C12.0469 9.82422 12.0938 9.65234 12.0938 9.65234L12.0469 1.56641C12.0469 1.56641 12.0117 1.38672 11.9414 1.02734C11.8711 0.667969 11.7188 0.417969 11.4844 0.277344C11.1406 0.0585938 10.8945 -0.03125 10.7461 0.0078125C10.5977 0.046875 10.4766 0.0742188 10.3828 0.0898438L5.64844 1.87109C5.64844 1.87109 5.55859 1.91016 5.37891 1.98828C5.19922 2.06641 5.04688 2.19922 4.92188 2.38672C4.75 2.66797 4.76562 2.96484 4.96875 3.27734C5.17188 3.58984 5.27344 3.74609 5.27344 3.74609L10.2188 10.4492C10.2188 10.4492 10.3242 10.5273 10.5352 10.6836C10.7461 10.8398 11.0078 10.8789 11.3203 10.8008ZM10.1484 14.1055C10.1484 13.793 10.0234 13.5469 9.77344 13.3672C9.52344 13.1875 9.39844 13.0977 9.39844 13.0977L4.28906 10.5195C4.28906 10.5195 4.15234 10.4766 3.87891 10.3906C3.60547 10.3047 3.36719 10.3164 3.16406 10.4258C3.03906 10.5039 2.91797 10.6094 2.80078 10.7422C2.68359 10.875 2.625 11.0117 2.625 11.1523L2.27344 15.2305C2.27344 15.2305 2.27344 15.3633 2.27344 15.6289C2.27344 15.8945 2.32813 16.1055 2.4375 16.2617C2.5625 16.4961 2.77734 16.5781 3.08203 16.5078C3.38672 16.4375 3.53906 16.4023 3.53906 16.4023L9.49219 15.0898C9.60156 15.0117 9.73438 14.9297 9.89062 14.8438C10.0469 14.7578 10.1328 14.5117 10.1484 14.1055ZM11.6016 16.2852C11.3516 16.1445 11.1055 16.1562 10.8633 16.3203C10.6211 16.4844 10.5 16.5664 10.5 16.5664L6.51562 20.9492C6.51562 20.9492 6.44141 21.0781 6.29297 21.3359C6.14453 21.5938 6.09375 21.8242 6.14062 22.0273C6.20312 22.2148 6.28516 22.3633 6.38672 22.4727C6.48828 22.582 6.60938 22.6758 6.75 22.7539L10.7344 23.9961C10.7344 23.9961 10.832 24.0078 11.0273 24.0312C11.2227 24.0547 11.4062 24.043 11.5781 23.9961C11.8438 23.918 11.9805 23.7383 11.9883 23.457C11.9961 23.1758 12 23.0352 12 23.0352L12.1172 17.1055C12.1172 17.1055 12.0898 17 12.0352 16.7891C11.9805 16.5781 11.8359 16.4102 11.6016 16.2852Z" fill="white"/>
</svg>
