<svg width="24" height="25" viewBox="0 0 24 25" fill="none" xmlns="http://www.w3.org/2000/svg">
<path d="M12 2.15625C13.625 2.15625 14.6836 2.16406 15.1758 2.17969C15.668 2.19531 16.2344 2.21094 16.875 2.22656C17.4531 2.25781 17.9141 2.3125 18.2578 2.39062C18.6016 2.46875 18.8828 2.55469 19.1016 2.64844C19.3828 2.75781 19.6289 2.88281 19.8398 3.02344C20.0508 3.16406 20.2578 3.33594 20.4609 3.53906C20.6797 3.75781 20.8594 3.97266 21 4.18359C21.1406 4.39453 21.2656 4.64062 21.375 4.92188C21.4688 5.125 21.5547 5.40234 21.6328 5.75391C21.7109 6.10547 21.7656 6.57031 21.7969 7.14844C21.8125 7.77344 21.8281 8.33594 21.8438 8.83594C21.8594 9.33594 21.8672 10.3984 21.8672 12.0234C21.8672 13.6328 21.8594 14.6836 21.8438 15.1758C21.8281 15.668 21.8125 16.2344 21.7969 16.875C21.7656 17.4375 21.7109 17.8945 21.6328 18.2461C21.5547 18.5977 21.4688 18.875 21.375 19.0781C21.2656 19.3594 21.1406 19.6055 21 19.8164C20.8594 20.0273 20.6797 20.2422 20.4609 20.4609C20.2578 20.6641 20.0508 20.8359 19.8398 20.9766C19.6289 21.1172 19.3828 21.2422 19.1016 21.3516C18.8828 21.4453 18.6016 21.5312 18.2578 21.6094C17.9141 21.6875 17.4531 21.7422 16.875 21.7734C16.2344 21.8047 15.668 21.8242 15.1758 21.832C14.6836 21.8398 13.6328 21.8438 12.0234 21.8438C10.3984 21.8438 9.33984 21.8398 8.84766 21.832C8.35547 21.8242 7.78906 21.8047 7.14844 21.7734C6.57031 21.7422 6.10938 21.6875 5.76562 21.6094C5.42188 21.5312 5.14844 21.4453 4.94531 21.3516C4.66406 21.2422 4.41406 21.1172 4.19531 20.9766C3.97656 20.8359 3.76562 20.6641 3.5625 20.4609C3.35938 20.2422 3.1875 20.0273 3.04688 19.8164C2.90625 19.6055 2.78125 19.3594 2.67188 19.0781C2.57812 18.875 2.49219 18.5977 2.41406 18.2461C2.33594 17.8945 2.27344 17.4375 2.22656 16.875C2.21094 16.2344 2.19531 15.6641 2.17969 15.1641C2.16406 14.6641 2.15625 13.6172 2.15625 12.0234C2.15625 10.4141 2.16406 9.35547 2.17969 8.84766C2.19531 8.33984 2.21094 7.77344 2.22656 7.14844C2.27344 6.57031 2.33594 6.10938 2.41406 5.76562C2.49219 5.42188 2.57812 5.14062 2.67188 4.92188C2.78125 4.64062 2.90625 4.39453 3.04688 4.18359C3.1875 3.97266 3.35938 3.76562 3.5625 3.5625C3.76562 3.34375 3.97266 3.16406 4.18359 3.02344C4.39453 2.88281 4.64062 2.75781 4.92188 2.64844C5.14062 2.55469 5.42188 2.46875 5.76562 2.39062C6.10938 2.3125 6.57031 2.25781 7.14844 2.22656C7.78906 2.21094 8.35547 2.19531 8.84766 2.17969C9.33984 2.16406 10.3906 2.15625 12 2.15625ZM12 0C10.375 0 9.30469 0.0078125 8.78906 0.0234375C8.27344 0.0390625 7.69531 0.0546875 7.05469 0.0703125C6.42969 0.101562 5.88281 0.164062 5.41406 0.257812C4.94531 0.351562 4.52344 0.476562 4.14844 0.632812C3.75781 0.789062 3.39062 0.976562 3.04688 1.19531C2.70312 1.41406 2.35938 1.6875 2.01562 2.01562C1.6875 2.35938 1.41406 2.70312 1.19531 3.04688C0.976562 3.39062 0.789062 3.75 0.632812 4.125C0.476562 4.51562 0.351562 4.94531 0.257812 5.41406C0.164062 5.88281 0.101562 6.42969 0.0703125 7.05469C0.0546875 7.69531 0.0390625 8.27344 0.0234375 8.78906C0.0078125 9.30469 0 10.3828 0 12.0234C0 13.6484 0.0078125 14.7188 0.0234375 15.2344C0.0390625 15.75 0.0546875 16.3281 0.0703125 16.9688C0.101562 17.5938 0.164062 18.1406 0.257812 18.6094C0.351562 19.0781 0.476562 19.5 0.632812 19.875C0.789062 20.2656 0.976562 20.6328 1.19531 20.9766C1.41406 21.3203 1.6875 21.6641 2.01562 22.0078C2.35938 22.3359 2.70312 22.6094 3.04688 22.8281C3.39062 23.0469 3.75781 23.2344 4.14844 23.3906C4.52344 23.5469 4.94531 23.6719 5.41406 23.7656C5.88281 23.8594 6.42969 23.9219 7.05469 23.9531C7.69531 23.9688 8.27344 23.9844 8.78906 24C9.30469 24.0156 10.375 24.0234 12 24.0234C13.6406 24.0234 14.7188 24.0156 15.2344 24C15.75 23.9844 16.3281 23.9688 16.9688 23.9531C17.5938 23.9219 18.1406 23.8594 18.6094 23.7656C19.0781 23.6719 19.5 23.5469 19.875 23.3906C20.2656 23.2344 20.6328 23.0469 20.9766 22.8281C21.3203 22.6094 21.6641 22.3359 22.0078 22.0078C22.3359 21.6641 22.6094 21.3203 22.8281 20.9766C23.0469 20.6328 23.2266 20.2656 23.3672 19.875C23.5234 19.5 23.6523 19.0781 23.7539 18.6094C23.8555 18.1406 23.9219 17.5938 23.9531 16.9688C23.9688 16.3281 23.9805 15.75 23.9883 15.2344C23.9961 14.7188 24 13.6484 24 12.0234C24 10.3828 23.9961 9.30469 23.9883 8.78906C23.9805 8.27344 23.9688 7.69531 23.9531 7.05469C23.9219 6.42969 23.8555 5.88281 23.7539 5.41406C23.6523 4.94531 23.5234 4.52344 23.3672 4.14844C23.2266 3.75781 23.0469 3.39062 22.8281 3.04688C22.6094 2.70312 22.3359 2.35938 22.0078 2.01562C21.6641 1.6875 21.3203 1.41406 20.9766 1.19531C20.6328 0.976562 20.2734 0.789062 19.8984 0.632812C19.5078 0.476562 19.0781 0.351562 18.6094 0.257812C18.1406 0.164062 17.5938 0.101562 16.9688 0.0703125C16.3281 0.0546875 15.75 0.0390625 15.2344 0.0234375C14.7188 0.0078125 13.6484 0 12.0234 0H12ZM12.0234 5.83594C11.1641 5.83594 10.3594 6 9.60938 6.32812C8.85938 6.64062 8.20312 7.07812 7.64062 7.64062C7.07812 8.20312 6.64062 8.85938 6.32812 9.60938C6 10.3594 5.83594 11.1641 5.83594 12.0234C5.83594 12.8672 6 13.6641 6.32812 14.4141C6.64062 15.1641 7.07812 15.8203 7.64062 16.3828C8.20312 16.9453 8.85938 17.3828 9.60938 17.6953C10.3594 18.0234 11.1562 18.1875 12 18.1875C12.8594 18.1875 13.6641 18.0234 14.4141 17.6953C15.1641 17.3828 15.8203 16.9453 16.3828 16.3828C16.9453 15.8203 17.3828 15.1641 17.6953 14.4141C18.0234 13.6641 18.1875 12.8672 18.1875 12.0234C18.1875 11.1641 18.0234 10.3594 17.6953 9.60938C17.3828 8.85938 16.9453 8.20312 16.3828 7.64062C15.8203 7.07812 15.1641 6.64062 14.4141 6.32812C13.6641 6 12.8672 5.83594 12.0234 5.83594ZM12.0234 16.0312C10.9141 16.0312 9.96484 15.6367 9.17578 14.8477C8.38672 14.0586 7.99219 13.1172 7.99219 12.0234C7.99219 10.9141 8.38672 9.96484 9.17578 9.17578C9.96484 8.38672 10.9062 7.99219 12 7.99219C13.1094 7.99219 14.0586 8.38672 14.8477 9.17578C15.6367 9.96484 16.0312 10.9141 16.0312 12.0234C16.0312 13.1172 15.6367 14.0586 14.8477 14.8477C14.0586 15.6367 13.1172 16.0312 12.0234 16.0312ZM19.875 5.60156C19.875 5.99219 19.7344 6.32812 19.4531 6.60938C19.1719 6.89062 18.8281 7.03125 18.4219 7.03125C18.0312 7.03125 17.6953 6.89062 17.4141 6.60938C17.1328 6.32812 16.9922 5.99219 16.9922 5.60156C16.9922 5.19531 17.1328 4.85156 17.4141 4.57031C17.6953 4.28906 18.0312 4.14844 18.4219 4.14844C18.8281 4.14844 19.1719 4.28906 19.4531 4.57031C19.7344 4.85156 19.875 5.19531 19.875 5.60156Z" fill="white"/>
</svg>
