<svg width="45" height="45" viewBox="0 0 45 45" fill="none" xmlns="http://www.w3.org/2000/svg">
<g clip-path="url(#clip0_60_164)">
<path d="M19.6251 5.09904C19.6552 5.16968 22.3063 12.9369 21.5048 14.5811C21.1083 15.3714 20.3967 15.6778 18.9726 16.2939C18.7429 16.3928 18.1933 16.6324 17.7948 16.8252C17.8113 17.4883 17.8752 18.1492 17.9861 18.8031C18.5401 22.1731 20.2076 25.2601 22.7222 27.5709C23.2083 28.0222 23.726 28.438 24.2715 28.8153C24.6526 28.587 25.1547 28.2576 25.3689 28.1168C26.6579 27.2673 27.3051 26.8416 28.1844 26.9435C30.004 27.1576 35.0392 33.6495 35.0829 33.7137C35.3164 34.0106 35.4811 34.3557 35.5651 34.724C35.6491 35.0923 35.6503 35.4747 35.5685 35.8435C35.0143 37.7 26.557 40.9478 25.398 40.6017C25.3307 40.5817 18.5191 38.4421 12.4569 27.4449C6.58999 16.3582 8.5351 9.48856 8.55519 9.42126C8.90089 8.26335 16.254 2.96991 18.1105 3.52418C18.4638 3.6583 18.7828 3.86913 19.0447 4.14146C19.3067 4.41379 19.5049 4.74084 19.6251 5.09904ZM10.6626 10.1796C10.4648 11.1303 9.50638 17.1033 14.4144 26.3866C19.5124 35.6255 25.0485 38.0822 25.9184 38.4222C28.5341 37.6782 31.0371 36.5838 33.3594 35.1688C33.3294 35.1133 33.2822 35.0376 33.2206 34.9401C31.6373 32.8504 29.8496 30.9238 27.884 29.1888C27.4368 29.4287 27.0037 29.694 26.5869 29.9835C25.9618 30.4389 25.2912 30.8282 24.5857 31.1451C24.4463 31.1928 24.2987 31.2123 24.1517 31.2025C24.0046 31.1928 23.861 31.1539 23.729 31.0883C22.8173 30.5699 21.9731 29.9408 21.2157 29.2153C18.3328 26.5654 16.4211 23.0258 15.786 19.1619C15.5938 18.1307 15.5301 17.0797 15.5964 16.0328C15.6139 15.8864 15.6602 15.745 15.7326 15.6167C15.8051 15.4883 15.9023 15.3756 16.0186 15.2851C16.673 14.8676 17.3689 14.519 18.0952 14.2449C18.5948 14.0288 19.2615 13.7404 19.4628 13.6155C19.0921 11.015 18.4609 8.45833 17.5785 5.98414C17.5302 5.87316 17.4914 5.79292 17.4664 5.7401C15.0092 6.90643 12.7212 8.40003 10.6647 10.1802L10.6626 10.1796Z" fill="black"/>
<path d="M29.9894 23.3587C30.495 21.659 30.3056 19.828 29.4628 18.2677C28.6199 16.7074 27.1925 15.5452 25.4937 15.0362C25.2104 14.9516 24.9723 14.7579 24.8318 14.4978C24.6913 14.2377 24.6599 13.9324 24.7445 13.6491C24.8291 13.3658 25.0227 13.1277 25.2828 12.9872C25.543 12.8466 25.8483 12.8152 26.1316 12.8998C28.3964 13.5788 30.2995 15.1284 31.4232 17.2087C32.5469 19.2891 32.7996 21.7302 32.1257 23.9966C32.0411 24.2799 31.8475 24.518 31.5874 24.6585C31.3272 24.799 31.0219 24.8304 30.7386 24.7458C30.4553 24.6612 30.2172 24.4676 30.0767 24.2075C29.9362 23.9473 29.9048 23.642 29.9894 23.3587Z" fill="black"/>
<path d="M35.3292 24.9525C36.2556 21.8362 35.9081 18.4797 34.363 15.6193C32.8179 12.7589 30.2013 10.6282 27.0872 9.69445C26.8039 9.60987 26.5658 9.41621 26.4253 9.15608C26.2848 8.89595 26.2534 8.59066 26.338 8.30736C26.4226 8.02406 26.6162 7.78596 26.8763 7.64544C27.1365 7.50493 27.4418 7.47351 27.7251 7.55809C31.4054 8.66149 34.4978 11.1797 36.3238 14.5602C38.1499 17.9407 38.5605 21.9075 37.4656 25.5903C37.381 25.8736 37.1873 26.1117 36.9272 26.2522C36.6671 26.3927 36.3618 26.4242 36.0785 26.3396C35.7952 26.255 35.5571 26.0613 35.4166 25.8012C35.276 25.5411 35.2446 25.2358 35.3292 24.9525Z" fill="black"/>
</g>
<defs>
<clipPath id="clip0_60_164">
<rect width="35.6727" height="35.6727" fill="white" transform="matrix(0.286078 -0.958206 -0.958206 -0.286078 34.1818 44.387)"/>
</clipPath>
</defs>
</svg>
