<svg width="208" height="45" viewBox="0 0 208 45" fill="none" xmlns="http://www.w3.org/2000/svg">
<path d="M44.1836 22.0859C44.1836 9.88825 34.2954 0 22.0977 0C9.89997 0 0.0117188 9.88825 0.0117188 22.0859C0.0117188 34.2836 9.89997 44.1719 22.0977 44.1719C34.2954 44.1719 44.1836 34.2836 44.1836 22.0859Z" fill="white"/>
<path fill-rule="evenodd" clip-rule="evenodd" d="M36.8219 22.4219C36.8219 21.3778 36.7263 20.3739 36.5488 19.4102H22.3984V25.1058H30.4844C30.1361 26.9462 29.0775 28.5057 27.4863 29.5497V33.2441H32.3419C35.1829 30.6808 36.8219 26.9061 36.8219 22.4219Z" fill="#4285F4"/>
<path fill-rule="evenodd" clip-rule="evenodd" d="M22.399 36.8094C26.4557 36.8094 29.8566 35.4909 32.3425 33.2422L27.4869 29.5477C26.1415 30.4312 24.4205 30.9532 22.399 30.9532C18.4859 30.9532 15.1737 28.3631 13.9922 24.8828H8.97266V28.6977C11.4449 33.5099 16.5258 36.8094 22.399 36.8094Z" fill="#34A853"/>
<path fill-rule="evenodd" clip-rule="evenodd" d="M13.9926 24.8827C13.6921 23.9992 13.5213 23.0555 13.5213 22.0851C13.5213 21.1146 13.6921 20.171 13.9926 19.2875V15.4727H8.97306C7.95549 17.4604 7.375 19.7091 7.375 22.0851C7.375 24.461 7.95549 26.7098 8.97306 28.6975L13.9926 24.8827Z" fill="#FBBC05"/>
<path fill-rule="evenodd" clip-rule="evenodd" d="M22.3991 13.2195C24.6049 13.2195 26.5855 13.9624 28.1425 15.4214L32.4519 11.1982C29.8499 8.82231 26.4489 7.36328 22.3991 7.36328C16.5259 7.36328 11.4449 10.6628 8.97266 15.4749L13.9922 19.2899C15.1736 15.8096 18.4859 13.2195 22.3991 13.2195Z" fill="#EA4335"/>
<path d="M64.8821 28.7124C63.9584 28.7124 63.1349 28.5424 62.4116 28.2026C61.6927 27.8627 61.1218 27.3943 60.6992 26.7974C60.2765 26.2004 60.0565 25.5164 60.0391 24.7451H62.7841C62.8146 25.2636 63.0324 25.684 63.4377 26.0065C63.8429 26.3289 64.3244 26.4902 64.8821 26.4902C65.3265 26.4902 65.7187 26.3922 66.0586 26.1961C66.4028 25.9956 66.6707 25.7189 66.8625 25.366C67.0585 25.0087 67.1566 24.5992 67.1566 24.1373C67.1566 23.6667 67.0564 23.2527 66.856 22.8954C66.6599 22.5382 66.3876 22.2593 66.039 22.0589C65.6904 21.8584 65.2917 21.756 64.8429 21.7516C64.4507 21.7516 64.0695 21.8322 63.6992 21.9935C63.3331 22.1547 63.0477 22.3747 62.843 22.6537L60.3266 22.2026L60.9606 15.1439H69.1435V17.4577H63.2939L62.9475 20.8105H63.0259C63.2612 20.4794 63.6163 20.2049 64.0913 19.987C64.5662 19.7691 65.0978 19.6602 65.6861 19.6602C66.4921 19.6602 67.2111 19.8498 67.8429 20.2288C68.4747 20.6079 68.9736 21.1286 69.3395 21.7909C69.7056 22.4488 69.8865 23.207 69.882 24.0653C69.8865 24.9673 69.6773 25.7691 69.2546 26.4706C68.8364 27.1678 68.2502 27.7168 67.4965 28.1176C66.747 28.5141 65.8756 28.7124 64.8821 28.7124ZM73.0781 28.6993C72.6467 28.6993 72.2763 28.5467 71.9669 28.2418C71.662 27.9324 71.5095 27.5621 71.5095 27.1307C71.5095 26.7037 71.662 26.3377 71.9669 26.0326C72.2763 25.7277 72.6467 25.5752 73.0781 25.5752C73.4964 25.5752 73.8624 25.7277 74.1761 26.0326C74.4898 26.3377 74.6467 26.7037 74.6467 27.1307C74.6467 27.4182 74.5726 27.6819 74.4245 27.9215C74.2806 28.1568 74.0912 28.3463 73.8558 28.4901C73.6205 28.6296 73.3613 28.6993 73.0781 28.6993ZM81.6156 28.8235C80.4914 28.8191 79.524 28.5424 78.7137 27.9934C77.9075 27.4444 77.2866 26.6492 76.8509 25.6078C76.4196 24.5665 76.2061 23.3138 76.2104 21.8497C76.2104 20.39 76.4261 19.146 76.8574 18.1178C77.2932 17.0895 77.9141 16.3073 78.7202 15.7714C79.5306 15.231 80.4957 14.9609 81.6156 14.9609C82.7353 14.9609 83.6983 15.231 84.5044 15.7714C85.3149 16.3117 85.9379 17.096 86.3736 18.1243C86.8093 19.1482 87.0251 20.39 87.0207 21.8497C87.0207 23.3181 86.8028 24.573 86.3671 25.6144C85.9358 26.6557 85.317 27.4509 84.5109 27.9999C83.7048 28.549 82.7397 28.8235 81.6156 28.8235ZM81.6156 26.4771C82.3824 26.4771 82.9946 26.0915 83.4521 25.3203C83.9096 24.549 84.1362 23.3922 84.1318 21.8497C84.1318 20.8345 84.0273 19.9892 83.8181 19.3138C83.6133 18.6384 83.3214 18.1308 82.9423 17.791C82.5676 17.451 82.1253 17.2812 81.6156 17.2812C80.853 17.2812 80.243 17.6624 79.7855 18.4249C79.328 19.1875 79.097 20.329 79.0927 21.8497C79.0927 22.878 79.1951 23.7364 79.3999 24.4249C79.6091 25.1089 79.9032 25.6231 80.2822 25.9673C80.6613 26.3071 81.1057 26.4771 81.6156 26.4771Z" fill="#1E1E1E"/>
<path d="M106.76 12.8828L108.826 19.2415H115.513L110.104 23.1715L112.17 29.5303L106.76 25.6004L101.351 29.5303L103.417 23.1715L98.0078 19.2415H104.694L106.76 12.8828Z" fill="#E4A44A"/>
<path d="M129.768 12.8828L131.834 19.2415H138.521L133.111 23.1715L135.177 29.5303L129.768 25.6004L124.359 29.5303L126.425 23.1715L121.016 19.2415H127.702L129.768 12.8828Z" fill="#E4A44A"/>
<path d="M152.772 12.8828L154.838 19.2415H161.524L156.115 23.1715L158.181 29.5303L152.772 25.6004L147.363 29.5303L149.429 23.1715L144.02 19.2415H150.706L152.772 12.8828Z" fill="#E4A44A"/>
<path d="M175.78 12.8828L177.846 19.2415H184.532L179.123 23.1715L181.189 29.5303L175.78 25.6004L170.371 29.5303L172.437 23.1715L167.027 19.2415H173.714L175.78 12.8828Z" fill="#E4A44A"/>
<path d="M198.784 12.8828L200.85 19.2415H207.536L202.127 23.1715L204.193 29.5303L198.784 25.6004L193.375 29.5303L195.44 23.1715L190.031 19.2415H196.718L198.784 12.8828Z" fill="#E4A44A"/>
</svg>
