<svg width="73" height="73" viewBox="0 0 73 73" fill="none" xmlns="http://www.w3.org/2000/svg">
<path d="M69.0206 3.96801C66.6766 1.62404 62.8426 1.73807 60.6412 4.21606L42.7073 24.3984L37.0441 18.7351C34.8587 16.55 31.455 16.0846 28.7672 17.6037C28.3559 17.8362 28.2109 18.3581 28.4433 18.7694C28.6759 19.1807 29.1977 19.3259 29.609 19.0933C31.6305 17.9508 34.1903 18.3013 35.8343 19.945L53.044 37.1549C54.0248 38.1357 54.565 39.4396 54.565 40.8268C54.565 42.2139 54.0248 43.518 53.044 44.4989L51.3117 46.2311L25.866 20.7855C25.0196 19.9388 23.6423 19.9388 22.7956 20.7855L19.5612 24.0199C18.7147 24.8663 18.7147 26.2436 19.5612 27.09L19.954 27.4828C14.891 31.9102 9.08306 36.2654 2.24989 40.7576C1.79445 41.057 1.50143 41.5393 1.44601 42.0811C1.39066 42.6216 1.57933 43.1519 1.96355 43.5359L9.13277 50.7052C9.37573 50.9482 9.69848 51.0746 10.0246 51.0746C10.2439 51.0746 10.4647 51.0175 10.6637 50.9003L12.2205 49.984C12.6277 49.7444 12.7634 49.22 12.5238 48.8127C12.2842 48.4057 11.7599 48.27 11.3526 48.5095L10.0961 49.2491L3.17331 42.3261C3.166 42.3189 3.14379 42.2966 3.14803 42.2551C3.15096 42.2263 3.16495 42.2036 3.18967 42.1873C10.1274 37.6263 16.0241 33.2007 21.1668 28.6956L45.8989 53.4277C46.3222 53.851 46.8782 54.0626 47.4341 54.0626C47.99 54.0626 48.546 53.851 48.9693 53.4277L52.2036 50.1934C52.9411 49.456 53.0355 48.3157 52.4879 47.4745L54.2538 45.7086C55.5578 44.4046 56.2759 42.6709 56.2759 40.8268C56.2759 38.9826 55.5578 37.2489 54.2538 35.9451L48.5902 30.2813L68.7739 12.3487C71.2519 10.1459 71.3645 6.31199 69.0206 3.96801ZM64.9442 10.816C63.4144 10.816 62.174 9.57562 62.174 8.0443C62.174 6.51444 63.4144 5.27405 64.9442 5.27405C66.4741 5.27405 67.7145 6.51444 67.7145 8.0443C67.7145 9.57562 66.4741 10.816 64.9442 10.816Z" fill="#029AE4" stroke="black" stroke-width="1"/>
<path d="M43.2705 54.4475C42.902 54.1517 42.3635 54.2106 42.0679 54.5791C38.7542 58.7065 35.0755 63.6934 30.8219 69.8248C30.8056 69.8481 30.7832 69.8612 30.7552 69.8637C30.7133 69.868 30.6917 69.8453 30.6844 69.838L26.9785 66.1321L27.9291 63.782C28.06 63.4584 27.9812 63.0879 27.73 62.8454C27.4789 62.6032 27.1057 62.5376 26.7871 62.6802C26.7359 62.703 25.6206 63.2019 24.5639 63.7173L14.6273 53.781L19.5498 45.5485C19.7923 45.1431 19.6602 44.6177 19.2547 44.3753C18.8493 44.1328 18.3239 44.265 18.0815 44.6705L12.9788 53.2042C12.682 53.7005 12.7603 54.3331 13.1694 54.7426L23.5819 65.155C23.965 65.5381 24.5484 65.6337 25.0337 65.3931C25.1956 65.3126 25.3628 65.231 25.53 65.1504L25.2806 65.7669C25.0905 66.2371 25.1994 66.7725 25.5579 67.131L29.4745 71.0477C29.8143 71.3876 30.2704 71.5752 30.7459 71.575C30.7997 71.575 30.8538 71.5726 30.908 71.5678C31.4413 71.52 31.9223 71.2401 32.2276 70.8C36.4584 64.7017 40.1135 59.7462 43.402 55.6501C43.6978 55.2817 43.6389 54.7433 43.2705 54.4475Z" fill="#029AE4" stroke="black" stroke-width="1"/>
</svg>
