<svg width="90" height="90" viewBox="0 0 90 90" fill="none" xmlns="http://www.w3.org/2000/svg">
<path fill-rule="evenodd" clip-rule="evenodd" d="M89.5958 22.0888C89.5312 21.8894 89.4087 21.7137 89.2438 21.5843C89.0789 21.4549 88.8792 21.3775 88.6702 21.3621L79.1964 20.6619L75.6022 11.8664C75.523 11.6726 75.3878 11.5067 75.214 11.39C75.0401 11.2733 74.8354 11.2109 74.626 11.2109C74.4166 11.2109 74.212 11.2733 74.0381 11.39C73.8643 11.5067 73.7291 11.6726 73.6498 11.8664L70.0555 20.6619L60.5809 21.3621C60.3723 21.3778 60.1731 21.4552 60.0086 21.5844C59.8442 21.7136 59.7218 21.8888 59.6571 22.0877C59.5925 22.2866 59.5884 22.5003 59.6455 22.7015C59.7025 22.9027 59.8181 23.0824 59.9776 23.2178L67.2308 29.3543L64.9698 38.5818C64.9203 38.7851 64.9323 38.9985 65.0045 39.1948C65.0766 39.3912 65.2055 39.5617 65.3747 39.6847C65.544 39.8076 65.746 39.8774 65.9551 39.8853C66.1642 39.8931 66.3708 39.8385 66.5488 39.7286L74.6249 34.7269L82.7022 39.7286C82.8802 39.8388 83.087 39.8936 83.2962 39.8859C83.5055 39.8782 83.7077 39.8085 83.8771 39.6855C84.0465 39.5625 84.1755 39.3919 84.2477 39.1953C84.3198 38.9988 84.3318 38.7852 84.2821 38.5818L82.0204 29.3543L89.2745 23.2178C89.4336 23.0824 89.5491 22.9029 89.6063 22.702C89.6635 22.501 89.6598 22.2876 89.5958 22.0888Z" fill="#D6EDFF"/>
<path fill-rule="evenodd" clip-rule="evenodd" d="M6.12026 39.6866C6.28972 39.8092 6.49183 39.8787 6.70089 39.8862C6.90994 39.8937 7.1165 39.8388 7.2943 39.7286L15.3727 34.7269L23.4477 39.7286C23.6256 39.8394 23.8326 39.8946 24.042 39.8872C24.2515 39.8797 24.454 39.81 24.6236 39.6869C24.7932 39.5638 24.9223 39.3928 24.9943 39.196C25.0662 38.9991 25.0779 38.7853 25.0276 38.5818L22.7657 29.3543L30.0198 23.2178C30.1793 23.0824 30.2949 22.9026 30.3519 22.7013C30.409 22.5001 30.4048 22.2864 30.3401 22.0874C30.2753 21.8885 30.1529 21.7133 29.9883 21.5841C29.8237 21.455 29.6245 21.3777 29.4158 21.3621L19.9412 20.6619L16.3476 11.8664C16.2683 11.6726 16.1331 11.5067 15.9593 11.39C15.7854 11.2733 15.5808 11.2109 15.3714 11.2109C15.162 11.2109 14.9573 11.2733 14.7834 11.39C14.6096 11.5067 14.4744 11.6726 14.3952 11.8664L10.8024 20.6619L1.32776 21.3621C1.11912 21.3777 0.919824 21.4549 0.75522 21.5841C0.590616 21.7132 0.468142 21.8884 0.403373 22.0873C0.338604 22.2863 0.334468 22.5 0.39149 22.7013C0.448512 22.9026 0.564115 23.0824 0.723598 23.2178L7.97704 29.3543L5.71526 38.5818C5.66536 38.7853 5.67724 38.9991 5.74937 39.1959C5.8215 39.3927 5.95062 39.5635 6.12026 39.6866Z" fill="#D6EDFF"/>
<path fill-rule="evenodd" clip-rule="evenodd" d="M59.9675 12.9397C59.9029 12.7403 59.7804 12.5647 59.6155 12.4353C59.4506 12.3058 59.2509 12.2285 59.0419 12.213L49.5673 11.5127L45.9745 2.71785C45.8949 2.52401 45.7595 2.3582 45.5855 2.2415C45.4115 2.12481 45.2067 2.0625 44.9971 2.0625C44.7876 2.0625 44.5828 2.12481 44.4088 2.2415C44.2347 2.3582 44.0993 2.52401 44.0198 2.71785L40.4268 11.5124L30.9522 12.2127C30.7434 12.2284 30.544 12.3059 30.3794 12.4353C30.2148 12.5647 30.0924 12.7402 30.0279 12.9394C29.9634 13.1385 29.9596 13.3524 30.017 13.5538C30.0745 13.7551 30.1906 13.9348 30.3505 14.07L37.6039 20.2047L35.3397 29.4327C35.2899 29.6364 35.3019 29.8503 35.3741 30.0471C35.4463 30.244 35.5755 30.4149 35.7452 30.538C35.9149 30.6612 36.1174 30.731 36.3269 30.7387C36.5365 30.7463 36.7435 30.6914 36.9217 30.5809L44.9971 25.5784L53.0731 30.5809C53.2512 30.6917 53.4583 30.7468 53.6679 30.7392C53.8775 30.7317 54.0801 30.6618 54.2498 30.5385C54.4194 30.4152 54.5485 30.2442 54.6205 30.0472C54.6925 29.8502 54.7041 29.6362 54.6539 29.4326L52.3926 20.2058L59.6445 14.071C59.8043 13.9356 59.9203 13.7558 59.9778 13.5544C60.0353 13.353 60.0317 13.1391 59.9675 12.9397Z" fill="#D6EDFF"/>
<path fill-rule="evenodd" clip-rule="evenodd" d="M70.4618 62.0195C71.4057 61.3416 72.1178 60.3893 72.5012 59.2922C72.8846 58.1952 72.9207 57.0066 72.6046 55.8883C72.2885 54.77 71.6355 53.7763 70.7345 53.0423C69.8335 52.3083 68.7282 51.8697 67.5691 51.7862C67.5459 51.7852 67.5183 51.7836 67.4911 51.7836H52.5256L53.5783 45.2781C53.8616 43.6192 53.6383 41.9134 52.9376 40.3833L50.1075 34.0466C49.9222 33.6226 49.6549 33.2395 49.3209 32.9192C48.9869 32.599 48.5928 32.348 48.1614 32.1807C47.143 31.776 46.0221 31.7065 44.9615 31.9823C43.9008 32.2581 42.9557 32.8648 42.2635 33.7144C41.8784 34.1762 41.6731 34.7615 41.6851 35.3627L41.7474 41.7435C41.7611 42.3336 41.6166 42.9167 41.3288 43.4321L33.7502 57.493L32.0207 58.3775V57.7748C32.0196 56.9772 31.7023 56.2126 31.1382 55.6487C30.5742 55.0849 29.8096 54.7677 29.012 54.7668H14.8048C14.0074 54.768 13.243 55.0852 12.6792 55.6491C12.1153 56.2129 11.798 56.9774 11.7969 57.7748V84.9277C11.7984 85.7249 12.1158 86.489 12.6796 87.0526C13.2434 87.6162 14.0076 87.9334 14.8048 87.9346H29.0117C29.809 87.9337 30.5735 87.6166 31.1375 87.0529C31.7015 86.4892 32.019 85.7249 32.0203 84.9275V84.3109L34.5516 85.4535C34.6878 85.515 34.8354 85.5471 34.9849 85.5475H64.1185L64.1328 85.5487C64.2778 85.5605 64.4231 85.5682 64.5687 85.5682C66.9261 85.5682 68.1207 83.8526 68.6865 81.7404C68.893 80.9784 68.9215 80.1791 68.7698 79.4043C68.6182 78.6294 68.2904 77.8999 67.8119 77.2719L67.5796 76.9674L67.9031 76.7621C69.1863 75.9474 70.3465 74.6072 70.3465 73.0095C70.3464 71.9772 70.0107 70.9728 69.39 70.1478L69.1677 69.8513L69.4755 69.6449C70.0416 69.2691 70.5205 68.7761 70.8798 68.1994C71.2392 67.6227 71.4707 66.9756 71.5587 66.3018C71.6467 65.628 71.5891 64.9431 71.3899 64.2935C71.1906 63.6438 70.8544 63.0444 70.4038 62.5358L70.1494 62.2456L70.4618 62.0195Z" fill="#D6EDFF"/>
<path fill-rule="evenodd" clip-rule="evenodd" d="M79.9317 27.895C79.7321 28.0643 79.5836 28.2859 79.5029 28.5349C79.4222 28.7839 79.4124 29.0505 79.4746 29.3047L81.0727 35.823L75.3671 32.2898C75.1446 32.1519 74.888 32.0788 74.6261 32.0788C74.3643 32.0788 74.1077 32.1519 73.8851 32.2898L68.1787 35.823L69.777 29.3047C69.839 29.0505 69.8291 28.784 69.7484 28.535C69.6677 28.2861 69.5193 28.0644 69.3199 27.895L64.1943 23.5602L70.8884 23.0668C71.1493 23.0469 71.3996 22.955 71.6114 22.8012C71.8231 22.6475 71.988 22.4379 72.0876 22.1959L74.6254 15.9821L77.1654 22.1959C77.2648 22.4378 77.4294 22.6472 77.6409 22.801C77.8523 22.9547 78.1023 23.0468 78.363 23.0668L85.0578 23.5602L79.932 27.895H79.9317ZM89.9304 21.9787C89.8444 21.7128 89.681 21.4787 89.4612 21.3062C89.2414 21.1336 88.9751 21.0306 88.6965 21.0101L79.4398 20.326L75.9277 11.7319C75.822 11.4735 75.6418 11.2524 75.41 11.0967C75.1782 10.9411 74.9053 10.858 74.6261 10.858C74.347 10.858 74.0741 10.9411 73.8423 11.0967C73.6105 11.2524 73.4303 11.4735 73.3246 11.7319L69.8125 20.326L60.5556 21.0101C60.2775 21.031 60.0118 21.1341 59.7924 21.3064C59.5729 21.4787 59.4097 21.7123 59.3235 21.9776C59.2372 22.2429 59.2318 22.5279 59.308 22.7963C59.3841 23.0646 59.5384 23.3043 59.7511 23.4848L66.8384 29.4805L64.6285 38.4967C64.5775 38.7037 64.5744 38.9196 64.6192 39.128C64.6641 39.3364 64.7558 39.5319 64.8875 39.6996C65.0191 39.8673 65.1872 40.0029 65.379 40.0959C65.5708 40.189 65.7813 40.2372 65.9945 40.2369C66.256 40.2379 66.5125 40.1647 66.7342 40.026L74.625 35.1392L82.5176 40.026C82.7549 40.1729 83.0306 40.2459 83.3096 40.2356C83.5886 40.2254 83.8582 40.1323 84.0841 39.9683C84.31 39.8043 84.4819 39.5768 84.5781 39.3147C84.6742 39.0526 84.6902 38.7679 84.624 38.4967L82.4137 29.4805L89.5017 23.4848C89.7148 23.3048 89.8693 23.0654 89.9457 22.7971C90.0221 22.5288 90.0167 22.2439 89.9304 21.9787ZM4.94022 23.5607L11.6357 23.0668C11.8963 23.0466 12.1463 22.9546 12.3577 22.8008C12.5691 22.6471 12.7337 22.4377 12.8331 22.1959L15.3734 15.9821L17.9109 22.1959C18.0106 22.4379 18.1755 22.6474 18.3872 22.8012C18.5989 22.955 18.8492 23.0469 19.1101 23.0668L25.8037 23.5602L20.6798 27.895C20.4799 28.0641 20.3311 28.2856 20.2499 28.5346C20.1688 28.7836 20.1585 29.0502 20.2204 29.3047L21.8186 35.823L16.1129 32.2895C15.8903 32.1517 15.6337 32.0787 15.372 32.0787C15.1102 32.0787 14.8536 32.1517 14.631 32.2895L8.92535 35.8227L10.5234 29.3044C10.5856 29.0501 10.5758 28.7836 10.4951 28.5346C10.4144 28.2856 10.2659 28.064 10.0663 27.8946L4.94057 23.5602L4.94022 23.5607ZM5.91387 39.9701C6.13956 40.1343 6.40915 40.2274 6.68809 40.2375C6.96703 40.2475 7.24262 40.174 7.47955 40.0265L15.3721 35.1398L23.2621 40.0265C23.4993 40.1741 23.7752 40.2476 24.0545 40.2376C24.3337 40.2277 24.6036 40.1346 24.8298 39.9705C25.0559 39.8063 25.2279 39.5784 25.3239 39.316C25.4198 39.0536 25.4353 38.7685 25.3685 38.4972L23.1594 29.4805L30.2474 23.4848C30.4602 23.3043 30.6144 23.0645 30.6906 22.7961C30.7667 22.5277 30.7612 22.2427 30.6749 21.9774C30.5885 21.712 30.4252 21.4784 30.2057 21.3062C29.9862 21.1339 29.7204 21.0309 29.4422 21.0101L20.1855 20.326L16.6736 11.7319C16.5679 11.4734 16.3877 11.2523 16.1559 11.0966C15.9241 10.9409 15.6512 10.8578 15.372 10.8578C15.0927 10.8578 14.8198 10.9409 14.588 11.0966C14.3562 11.2523 14.176 11.4734 14.0703 11.7319L10.5599 20.326L1.30154 21.0101C1.02332 21.0309 0.757556 21.134 0.538072 21.3062C0.318589 21.4785 0.155303 21.7121 0.0689883 21.9774C-0.0173267 22.2427 -0.0227696 22.5277 0.0533521 22.7962C0.129474 23.0646 0.283719 23.3043 0.496466 23.4848L7.58361 29.4805L5.3744 38.4967C5.30805 38.768 5.32396 39.053 5.42009 39.3153C5.51622 39.5776 5.68823 39.8053 5.91422 39.9695L5.91387 39.9701ZM50.3057 18.7494C50.1056 18.9179 49.9567 19.139 49.876 19.3877C49.7952 19.6365 49.7857 19.9029 49.8486 20.1567L51.4467 26.6768L45.7387 23.1422C45.5167 23.004 45.2604 22.9307 44.9989 22.9307C44.7374 22.9307 44.4811 23.004 44.2591 23.1422L38.5513 26.6768L40.151 20.1567C40.2129 19.9027 40.2028 19.6364 40.1218 19.3878C40.0408 19.1392 39.8921 18.9182 39.6923 18.7494L34.5681 14.4125L41.2622 13.9191C41.5231 13.8999 41.7735 13.8083 41.9852 13.6546C42.1969 13.501 42.3615 13.2913 42.4605 13.0492L44.999 6.83495L47.5392 13.0488C47.6378 13.291 47.8021 13.5007 48.0135 13.6544C48.225 13.8082 48.4752 13.8997 48.7359 13.9188L55.43 14.4125L50.3057 18.7498V18.7494ZM60.3037 12.8305C60.3898 13.0961 60.3948 13.3814 60.3182 13.6499C60.2416 13.9184 60.0867 14.158 59.8734 14.3382L52.7879 20.3334L54.9971 29.3487C55.0639 29.6201 55.0483 29.9053 54.9523 30.1678C54.8563 30.4303 54.6843 30.6583 54.4581 30.8226C54.232 30.9869 53.962 31.08 53.6827 31.0902C53.4033 31.1003 53.1273 31.027 52.8898 30.8795L44.999 25.9918L37.1084 30.8795C36.8708 31.0266 36.5948 31.0997 36.3156 31.0894C36.0364 31.0791 35.7665 30.9859 35.5404 30.8217C35.3143 30.6576 35.1422 30.4298 35.046 30.1675C34.9498 29.9051 34.9339 29.6201 35.0002 29.3487L37.2119 20.3334L30.1247 14.3384C29.9115 14.1581 29.7568 13.9185 29.6803 13.65C29.6037 13.3815 29.6088 13.0963 29.6949 12.8308C29.781 12.5652 29.9442 12.3312 30.1637 12.1587C30.3832 11.9862 30.6491 11.883 30.9275 11.8621L40.1858 11.1782L43.6963 2.58491C43.8022 2.32643 43.9827 2.1053 44.2147 1.94967C44.4467 1.79404 44.7197 1.71094 44.9991 1.71094C45.2785 1.71094 45.5515 1.79404 45.7835 1.94967C46.0155 2.1053 46.1959 2.32643 46.3019 2.58491L49.8115 11.1782L59.0698 11.8623C59.3483 11.8832 59.6143 11.9864 59.8341 12.1589C60.0538 12.3314 60.2173 12.5652 60.3037 12.8308V12.8305ZM25.1108 61.392C25.0028 61.3923 24.8972 61.3606 24.8074 61.3009C24.7175 61.2412 24.6474 61.1561 24.6059 61.0564C24.5644 60.9568 24.5535 60.8471 24.5745 60.7412C24.5954 60.6353 24.6474 60.5381 24.7237 60.4618C24.8 60.3855 24.8973 60.3335 25.0031 60.3125C25.109 60.2916 25.2187 60.3025 25.3183 60.344C25.418 60.3854 25.5031 60.4556 25.5628 60.5454C25.6226 60.6353 25.6543 60.7409 25.6539 60.8488C25.6535 60.9927 25.5961 61.1306 25.4943 61.2324C25.3926 61.3342 25.2547 61.3915 25.1108 61.392ZM25.1108 57.4918C24.4467 57.4915 23.7974 57.6882 23.2451 58.057C22.6929 58.4258 22.2623 58.95 22.008 59.5635C21.7537 60.177 21.6871 60.8521 21.8165 61.5034C21.9459 62.1548 22.2655 62.7531 22.735 63.2228C23.2045 63.6925 23.8028 64.0124 24.4541 64.142C25.1054 64.2717 25.7805 64.2052 26.3941 63.9512C27.0076 63.6971 27.5321 63.2668 27.901 62.7146C28.27 62.1624 28.467 61.5133 28.467 60.8492C28.4664 59.9591 28.1127 59.1057 27.4834 58.4762C26.8542 57.8467 26.0008 57.4926 25.1108 57.4918ZM67.3876 60.624C68.1921 60.5687 68.9461 60.2115 69.4985 59.624C70.051 59.0366 70.3612 58.2621 70.3671 57.4557C70.373 56.6493 70.0741 55.8704 69.5303 55.2749C68.9865 54.6794 68.2378 54.3113 67.4341 54.2442H51.2869C51.0833 54.244 50.8822 54.1996 50.6974 54.1141C50.5127 54.0287 50.3486 53.9042 50.2166 53.7492C50.0847 53.5942 49.9878 53.4125 49.9328 53.2165C49.8779 53.0204 49.8661 52.8148 49.8982 52.6138L51.148 44.8865C51.3615 43.7013 51.2018 42.479 50.691 41.3884L47.8627 35.051C47.8081 34.9163 47.7256 34.7946 47.6207 34.694C47.5158 34.5933 47.3908 34.516 47.2539 34.4671C46.7214 34.2563 46.1356 34.2204 45.5812 34.3646C45.0269 34.5088 44.5329 34.8256 44.1705 35.2691C44.1619 35.2787 44.1544 35.2893 44.1482 35.3006C44.1457 35.3129 44.1451 35.3254 44.1465 35.3379L44.2078 41.7203C44.2268 42.7261 43.9806 43.7191 43.494 44.5994L35.7596 58.9506C35.6235 59.2006 35.4152 59.4038 35.1619 59.5336L32.3712 60.9617V81.7687L35.288 83.0871H64.1688C64.2151 83.0869 64.2613 83.0891 64.3073 83.0938C65.0613 83.1676 65.7802 83.0722 66.3093 81.1043C66.4769 80.4849 66.4181 79.8262 66.1436 79.2462C65.8691 78.6663 65.3969 78.2033 64.8117 77.9402C64.5393 77.817 64.3133 77.6101 64.1665 77.3498C64.0197 77.0894 63.9596 76.7889 63.9951 76.4921C64.0306 76.1953 64.1598 75.9175 64.3638 75.6991C64.5679 75.4806 64.8363 75.3329 65.13 75.2773C66.4942 75.0186 67.8841 73.8741 67.8841 73.0097C67.8834 72.4722 67.6954 71.9518 67.3524 71.538C67.0095 71.1241 66.533 70.8427 66.005 70.7422C65.6447 70.6717 65.3261 70.4632 65.1175 70.161C64.9089 69.8589 64.8267 69.4871 64.8885 69.1252C64.9504 68.7632 65.1513 68.4398 65.4485 68.2241C65.7456 68.0083 66.1153 67.9174 66.4786 67.9706C67.0793 68.0622 67.6919 67.9135 68.1839 67.5568C68.6758 67.2001 69.0075 66.6641 69.1073 66.0647C69.207 65.4653 69.0667 64.8507 68.7167 64.3539C68.3668 63.8572 67.8353 63.5182 67.2373 63.4103C66.9009 63.3487 66.5986 63.1666 66.3867 62.8982C66.1749 62.6297 66.0682 62.2933 66.0865 61.9519C66.1048 61.6104 66.2468 61.2873 66.4861 61.043C66.7254 60.7988 67.0455 60.6501 67.3865 60.6247L67.3876 60.624ZM29.5594 84.9275V57.7746C29.5576 57.63 29.4992 57.4918 29.3967 57.3897C29.2943 57.2875 29.156 57.2295 29.0113 57.2281H14.8051C14.6606 57.2299 14.5226 57.288 14.4203 57.3901C14.3181 57.4922 14.2598 57.6301 14.2579 57.7746V84.9275C14.2603 85.0718 14.3187 85.2096 14.4208 85.3116C14.5229 85.4135 14.6607 85.4718 14.8051 85.474H29.0119C29.1564 85.4722 29.2945 85.414 29.3968 85.312C29.4992 85.21 29.5577 85.072 29.56 84.9275H29.5594ZM73.169 57.4313C73.1634 55.9134 72.586 54.4533 71.5519 53.342C70.5178 52.2308 69.103 51.55 67.5894 51.4354C67.5563 51.4338 67.5231 51.4321 67.4899 51.4321H52.9387L53.9257 45.3342C54.2196 43.6077 53.9872 41.8326 53.2588 40.2399L50.4287 33.9033C50.2253 33.4377 49.9317 33.0169 49.5649 32.6652C49.1981 32.3135 48.7653 32.0378 48.2916 31.8541C47.2037 31.4218 46.0064 31.3475 44.8734 31.6421C43.7405 31.9366 42.731 32.5846 41.9914 33.492C41.5542 34.0174 41.3208 34.6826 41.3338 35.366L41.396 41.7469C41.4096 42.2777 41.2795 42.8024 41.0195 43.2654L33.4927 57.23L32.3723 57.8029V57.7748C32.3712 56.884 32.0168 56.03 31.3868 55.4002C30.7569 54.7704 29.9028 54.4162 29.0121 54.4152H14.8051C13.9144 54.4165 13.0606 54.7708 12.4308 55.4006C11.8011 56.0303 11.4467 56.8841 11.4455 57.7748V84.9277C11.4471 85.8181 11.8016 86.6716 12.4313 87.3011C13.061 87.9307 13.9146 88.2849 14.8051 88.2862H29.0119C29.9025 88.2852 30.7563 87.931 31.3862 87.3014C32.0161 86.6718 32.3707 85.8181 32.3721 84.9275V84.8555L34.4064 85.7743C34.5879 85.8569 34.785 85.8996 34.9844 85.8994H64.1045C64.2562 85.9119 64.4105 85.9202 64.5689 85.9202C66.2109 85.9202 68.1424 85.1307 69.0264 81.8317C69.2467 81.0177 69.2771 80.164 69.115 79.3365C68.9529 78.5089 68.6028 77.7297 68.0917 77.059C69.5604 76.1262 70.6982 74.6684 70.6982 73.0097C70.6982 71.9013 70.3378 70.8229 69.6715 69.9371C70.2791 69.5333 70.793 69.004 71.1787 68.3848C71.5644 67.7657 71.8129 67.071 71.9074 66.3476C72.0018 65.6243 71.9401 64.8891 71.7264 64.1916C71.5127 63.4941 71.1519 62.8505 70.6683 62.3043C71.4407 61.7475 72.07 61.0156 72.5048 60.1685C72.9396 59.3215 73.1674 58.3834 73.1695 57.4313H73.169Z" fill="#515DFF"/>
</svg>
