<svg width="46" height="35" viewBox="0 0 46 35" fill="none" xmlns="http://www.w3.org/2000/svg">
<path d="M39.6885 1.61719C40.9593 0.186697 43.1734 0.120649 44.5264 1.47363C45.8791 2.82665 45.814 5.03989 44.3838 6.31152L30.9805 18.2197L30.584 18.5723L34.7197 22.708C35.4918 23.48 35.916 24.5046 35.916 25.5967C35.9159 26.6885 35.4918 27.7123 34.7197 28.4844L33.2607 29.9434L33.4814 30.2832C33.7192 30.6485 33.6772 31.1442 33.3584 31.4629L31.2109 33.6104C31.0277 33.7936 30.7873 33.8857 30.5449 33.8857C30.3025 33.8857 30.0622 33.7936 29.8789 33.6104L13.125 16.8564L12.7725 17.1641C9.37796 20.1378 5.48137 23.0634 0.889648 26.082H0.888672C0.750939 26.1729 0.656306 26.3208 0.638672 26.4941C0.612853 26.7476 0.759197 26.9037 0.799805 26.9443V26.9453L5.39648 31.543L5.6709 31.8164L6.00391 31.6201L6.83887 31.1289L6.83789 31.1279C6.86239 31.1136 6.89282 31.117 6.91406 31.1328L6.93164 31.1533C6.9506 31.1859 6.93944 31.2271 6.90723 31.2461L5.87402 31.8545C5.82073 31.8859 5.76172 31.9013 5.70312 31.9014C5.61541 31.9014 5.52884 31.8677 5.46387 31.8027L0.703125 27.042C0.554477 26.8934 0.482565 26.6897 0.503906 26.4805C0.525385 26.2705 0.637516 26.0841 0.814453 25.9678C5.36723 22.9747 9.24349 20.0692 12.626 17.1113L13.0283 16.7598L12.3896 16.1211C12.0228 15.7543 12.0228 15.1559 12.3896 14.7891L14.5371 12.6416C14.9041 12.2746 15.5024 12.2747 15.8691 12.6416L33.1201 29.8926L34.624 28.3887C35.369 27.6436 35.7802 26.6503 35.7803 25.5967C35.7803 24.543 35.3689 23.5497 34.624 22.8047L23.1953 11.376C22.0232 10.2042 20.2406 9.89662 18.7549 10.5791L18.4619 10.7285C18.4295 10.7468 18.3878 10.7361 18.3691 10.7031C18.3507 10.6705 18.3627 10.6289 18.3955 10.6104C19.9845 9.71247 21.9994 9.98784 23.292 11.2803L27.4277 15.416L27.7793 15.0195L39.6885 1.61719ZM42.1729 1.4873C40.8808 1.4873 39.833 2.53509 39.833 3.82715C39.8331 5.11993 40.8807 6.16797 42.1729 6.16797C43.4649 6.16782 44.5116 5.11983 44.5117 3.82715C44.5117 2.53518 43.4648 1.48746 42.1729 1.4873Z" fill="#B0E6F3" stroke="black"/>
</svg>
