<svg width="30" height="16" viewBox="0 0 30 16" fill="none" xmlns="http://www.w3.org/2000/svg">
<path d="M20.8624 0C20.8237 1.79262 18.1668 3.23886 14.8948 3.23886C11.6224 3.23886 8.96632 1.79262 8.92722 0C3.9215 0.45816 0 4.66578 0 9.79064C0 15.2214 4.4022 15.2071 9.83204 15.2071H11.1996C10.3707 15.0843 9.6048 14.7057 8.9999 14.1027C8.29656 13.3984 7.88854 12.4646 7.85036 11.4742L7.83748 11.1334L8.07852 10.8923L8.67054 10.3003L9.22254 9.74832L9.77546 10.2999L11.0184 11.5423H11.5915L12.0129 11.1223V10.5478L10.77 9.3058L10.2175 8.75288L10.7704 8.20088L11.3629 7.60932L11.6044 7.36828L11.9457 7.38162C12.938 7.42072 13.8718 7.82966 14.5714 8.53116C14.6804 8.63972 14.7798 8.75564 14.8732 8.87432C14.9367 8.67974 15.0402 8.49896 15.1892 8.34992L16.5462 6.99844C16.7928 6.75188 17.1217 6.61526 17.4713 6.61526C17.8227 6.61526 18.1521 6.75234 18.4018 7.00212L18.9837 7.58678L19.1677 7.77262L19.7174 8.32646L19.6185 8.42444L19.6645 8.4387L19.7266 8.45848L19.9088 8.51552L20.044 8.65122L20.0914 8.69814L21.5225 10.1352L21.5588 10.1729L21.5837 10.2028C21.7286 10.3808 22.1987 11.0727 22.1577 12.5152C22.1223 13.7756 21.2847 14.7619 20.8306 15.2067C25.8506 15.1929 29.7896 14.9265 29.7896 9.79064C29.7896 4.66578 25.869 0.45816 20.8624 0Z" fill="#029AE4"/>
</svg>
