<svg width="30" height="33" viewBox="0 0 30 33" fill="none" xmlns="http://www.w3.org/2000/svg">
<path d="M15.0981 21.1084C16.4942 21.1084 17.7581 20.5419 18.6734 19.6286C19.5886 18.7133 20.1532 17.4488 20.1532 16.0533C20.1532 14.6579 19.5886 13.3934 18.6734 12.4781C17.7581 11.5648 16.4936 10.9983 15.0981 10.9983C13.7027 10.9983 12.4382 11.5648 11.5242 12.4781C10.609 13.3934 10.0424 14.6579 10.0424 16.0533C10.0424 17.4488 10.609 18.7133 11.5242 19.6286C12.4382 20.5419 13.7021 21.1084 15.0981 21.1084ZM13.655 13.4784C13.909 13.2741 14.2248 13.122 14.5761 13.0453V12.4259C14.5761 12.1372 14.81 11.9032 15.0988 11.9032C15.3895 11.9032 15.6234 12.1372 15.6234 12.4259V13.0453C15.9212 13.1111 16.1951 13.2316 16.4272 13.3927C16.8197 13.6647 17.0943 14.0559 17.1761 14.5032C17.229 14.7862 17.0408 15.0588 16.7578 15.1117C16.4729 15.1626 16.2003 14.9744 16.1494 14.6914C16.1184 14.5232 16.0031 14.3679 15.8336 14.2512C15.6402 14.1178 15.3843 14.036 15.0988 14.036C14.7862 14.036 14.5071 14.1346 14.3092 14.2938C14.1449 14.4253 14.0424 14.6006 14.0424 14.7836C14.0424 14.966 14.1449 15.14 14.3092 15.2735C14.5065 15.4327 14.7862 15.5293 15.0988 15.5293H15.1136C15.6582 15.5364 16.1571 15.7227 16.5258 16.0192C16.9331 16.3479 17.1871 16.8087 17.1871 17.3237C17.1871 17.8387 16.9331 18.3015 16.5258 18.6282C16.2718 18.8326 15.956 18.9847 15.6067 19.0614V19.6808C15.6067 19.9695 15.3708 20.2035 15.082 20.2035C14.7933 20.2035 14.5574 19.9695 14.5574 19.6808V19.0614C14.2596 18.9956 13.9857 18.8751 13.7556 18.714C13.3631 18.442 13.0866 18.0507 13.0047 17.6034C12.9538 17.3205 13.1401 17.0479 13.4249 16.995C13.7079 16.9441 13.9805 17.1323 14.0314 17.4152C14.0624 17.5835 14.1797 17.7388 14.3473 17.8554C14.5406 17.9889 14.7965 18.0707 15.082 18.0707C15.3946 18.0707 15.6737 17.9721 15.8716 17.8129C16.0359 17.6814 16.1384 17.5061 16.1384 17.3231C16.1384 17.1407 16.0359 16.9666 15.8716 16.8332C15.6744 16.674 15.3946 16.5773 15.082 16.5773H15.0672C14.5245 16.5703 14.0237 16.384 13.655 16.0875C13.2477 15.7588 12.9938 15.2979 12.9938 14.783C12.9938 14.268 13.2477 13.8052 13.655 13.4784ZM26.1441 16.0508C26.1441 16.5077 25.9288 16.8983 25.5428 17.1413L24.6527 17.7021C24.0829 18.0617 23.887 18.7945 24.1996 19.392L24.6913 20.3292C24.9034 20.7326 24.8924 21.1806 24.6656 21.575C24.4374 21.9676 24.0533 22.1996 23.5989 22.2163L22.5483 22.2582C21.876 22.286 21.3385 22.8209 21.3114 23.4951L21.2676 24.5528C21.2496 25.0078 21.0175 25.3894 20.6224 25.6182C20.228 25.8451 19.78 25.8541 19.3785 25.642L18.4465 25.1522C17.8509 24.8377 17.1181 25.0336 16.7565 25.6034L16.19 26.4986C15.947 26.8821 15.5545 27.098 15.0994 27.098C14.9402 27.098 14.7907 27.0722 14.6521 27.0213C14.6212 26.8641 14.5735 26.7126 14.5116 26.5702C14.7585 26.2286 14.9061 25.8103 14.9061 25.3571C14.9061 24.215 13.9741 23.2837 12.8326 23.2837H10.7443C10.9126 22.2918 10.8829 21.1664 10.6399 20.2196C10.6857 20.2692 10.7334 20.3182 10.7824 20.3678C11.8877 21.4732 13.4133 22.1564 15.0975 22.1564C16.7836 22.1564 18.3092 21.4732 19.4126 20.3678C20.518 19.2644 21.2012 17.7369 21.2012 16.0527C21.2012 14.3679 20.518 12.841 19.4126 11.7376C18.3092 10.6322 16.7836 9.94898 15.0975 9.94898C13.4127 9.94898 11.8877 10.6322 10.7824 11.7376C9.67893 12.841 8.99572 14.3685 8.99572 16.0527C8.99572 16.8384 9.14396 17.5893 9.41402 18.2783C8.11143 17.4578 6.38666 18.4594 6.60773 20.3118C6.62063 21.0974 6.35895 21.6092 5.97545 22.0385C5.79627 21.9289 5.6448 21.7736 5.5333 21.5783C5.30514 21.1819 5.29547 20.7359 5.50752 20.3324L5.99736 19.4023C6.31189 18.8068 6.11596 18.0739 5.54619 17.7124L4.65094 17.1458C4.26744 16.9009 4.05152 16.5103 4.05152 16.0553C4.05152 15.5983 4.26873 15.2077 4.65416 14.9647L5.54232 14.404C6.11209 14.0443 6.30996 13.3115 5.99736 12.714L5.50559 11.7769C5.29354 11.3734 5.30256 10.9254 5.53137 10.5329C5.75953 10.1385 6.14174 9.90645 6.59678 9.88969L7.64736 9.84779C8.32154 9.82201 8.85844 9.28512 8.88615 8.61287L8.92998 7.55326C8.94803 7.09822 9.18006 6.71666 9.57516 6.48785C9.96961 6.26162 10.4156 6.25195 10.8191 6.464L11.7492 6.95385C12.3466 7.26838 13.0795 7.07244 13.4391 6.50268L14.0076 5.60742C14.2506 5.22393 14.6418 5.00801 15.0981 5.00801C15.5532 5.00801 15.9438 5.22328 16.1868 5.60936L16.7475 6.49881C17.1071 7.06857 17.84 7.26644 18.4375 6.95191L19.3765 6.46014C19.7787 6.25002 20.226 6.25904 20.6205 6.48785C21.0149 6.71602 21.245 7.09822 21.2637 7.55326L21.3037 8.60385C21.3314 9.27803 21.8664 9.81363 22.5405 9.84264L23.5982 9.88646C24.0533 9.90451 24.4368 10.1353 24.6636 10.5316C24.8899 10.9261 24.8995 11.3721 24.6875 11.7756L24.1976 12.7056C23.8831 13.3012 24.079 14.034 24.6488 14.3956L25.5441 14.9621C25.9308 15.2051 26.1461 15.5957 26.1441 16.0508ZM12.8326 26.3826H12.6154C13.1781 26.3826 13.6402 26.8428 13.6402 27.4074C13.6402 27.9701 13.1781 28.4322 12.6154 28.4322H12.4801C13.0447 28.4322 13.5049 28.8924 13.5049 29.457C13.5049 30.0197 13.0447 30.4818 12.4801 30.4818H12.0779C12.6425 30.4818 13.1027 30.942 13.1027 31.5066C13.1027 32.0693 12.6425 32.5314 12.0779 32.5314H6.01928C5.84912 32.5314 5.70475 32.5037 5.54813 32.4457L4.66189 32.1131C4.62709 32.1002 4.59229 32.0893 4.55941 32.0783V24.7423C4.71861 24.6598 4.85912 24.545 4.98158 24.3968C5.96256 23.2038 7.726 22.6682 7.65445 20.2331C7.48107 19.033 8.62834 18.587 9.26578 19.5976C9.98379 20.732 9.95672 23.1677 9.3225 24.333H12.832C13.3966 24.333 13.8568 24.7932 13.8568 25.3578C13.8574 25.9205 13.3972 26.3826 12.8326 26.3826ZM3.51334 24.5831V32.3297C3.51334 32.699 3.20977 33.0019 2.84109 33.0019H0.670313C0.30293 33.0019 0 32.6984 0 32.3297V24.5831C0 24.2138 0.303574 23.9128 0.670313 23.9128H2.84109C3.20977 23.9128 3.51334 24.2138 3.51334 24.5831ZM14.5754 2.28809V0.524648C14.5754 0.235898 14.8094 0 15.0981 0C15.3888 0 15.6228 0.235898 15.6228 0.524648V2.28744C15.6228 2.57813 15.3888 2.81209 15.0981 2.81209C14.8094 2.81209 14.5754 2.57877 14.5754 2.28809ZM21.5293 3.87234L22.4097 2.3448C22.5541 2.09666 22.8718 2.01029 23.1226 2.15273C23.3726 2.29711 23.459 2.61486 23.3146 2.86559L22.4342 4.39312C22.2898 4.64191 21.9721 4.72957 21.7213 4.5852C21.4706 4.44211 21.3849 4.12242 21.5293 3.87234ZM28.808 8.74113L27.2804 9.6235C27.0304 9.76787 26.7107 9.68215 26.5663 9.43143C26.4219 9.18264 26.5076 8.86295 26.7564 8.71857L28.284 7.83621C28.534 7.69184 28.8537 7.77756 28.9981 8.02635C29.1425 8.27707 29.0587 8.59676 28.808 8.74113ZM6.8823 2.86687C6.73793 2.6168 6.82365 2.29711 7.07244 2.15273C7.32252 2.00836 7.64221 2.09408 7.78658 2.34287L8.66895 3.87041C8.81332 4.12049 8.7276 4.44018 8.47881 4.58455C8.22873 4.72893 7.90904 4.64514 7.76467 4.39441L6.8823 2.86687ZM3.63 9.43143C3.48562 9.6815 3.16594 9.76787 2.91586 9.6235L1.39025 8.74113C1.14018 8.59676 1.05381 8.27707 1.19818 8.02699C1.34449 7.7782 1.66418 7.69248 1.91232 7.83686L3.43986 8.71922C3.69059 8.86359 3.77437 9.18328 3.63 9.43143Z" fill="#029AE4"/>
</svg>
